<?xml version="1.0" encoding="UTF-8" standalone="no"?>
<!-- Created with Inkscape (http://www.inkscape.org/) -->
<svg
   xmlns:i="http://ns.adobe.com/AdobeIllustrator/10.0/"
   xmlns:dc="http://purl.org/dc/elements/1.1/"
   xmlns:cc="http://web.resource.org/cc/"
   xmlns:rdf="http://www.w3.org/1999/02/22-rdf-syntax-ns#"
   xmlns:svg="http://www.w3.org/2000/svg"
   xmlns="http://www.w3.org/2000/svg"
   xmlns:xlink="http://www.w3.org/1999/xlink"
   xmlns:sodipodi="http://sodipodi.sourceforge.net/DTD/sodipodi-0.dtd"
   xmlns:inkscape="http://www.inkscape.org/namespaces/inkscape"
   width="744.09448819"
   height="1052.3622047"
   id="svg2"
   sodipodi:version="0.32"
   inkscape:version="0.45.1"
   sodipodi:docbase="/home/jason/work/logos"
   sodipodi:docname="JavaGAT.svg"
   inkscape:output_extension="org.inkscape.output.svg.inkscape"
   inkscape:export-filename="/home/jason/work/logos/JavaGAT.png"
   inkscape:export-xdpi="90"
   inkscape:export-ydpi="90">
  <defs
     id="defs4">
    <linearGradient
       y2="198.26198"
       x2="173.2397"
       y1="198.26198"
       x1="25.224077"
       gradientTransform="translate(1.842338,-5.527013)"
       gradientUnits="userSpaceOnUse"
       id="linearGradient5798"
       xlink:href="#linearGradient3758"
       inkscape:collect="always" />
    <linearGradient
       gradientTransform="translate(1.842338,-5.527013)"
       gradientUnits="userSpaceOnUse"
       y2="198.26198"
       x2="173.2397"
       y1="198.26198"
       x1="25.224077"
       id="linearGradient4886"
       xlink:href="#linearGradient3758"
       inkscape:collect="always" />
    <radialGradient
       r="54.055691"
       fy="178.72423"
       fx="56.758472"
       cy="178.72423"
       cx="56.758472"
       gradientTransform="matrix(1.637818,0,0,0.505993,-4.426668,50.39642)"
       gradientUnits="userSpaceOnUse"
       id="radialGradient3993"
       xlink:href="#linearGradient3753"
       inkscape:collect="always" />
    <linearGradient
       y2="156.74283"
       x2="91.426697"
       y1="54.738117"
       x1="79.201416"
       gradientTransform="matrix(1.176705,0,0,0.84983,-0.683612,32.4173)"
       gradientUnits="userSpaceOnUse"
       id="linearGradient3990"
       xlink:href="#linearGradient3758"
       inkscape:collect="always" />
    <linearGradient
       y2="74.252792"
       x2="37.945000"
       y1="47.678745"
       x1="43.776001"
       spreadMethod="reflect"
       gradientTransform="matrix(2.156205,0,0,0.463778,2.010652,26.8187)"
       gradientUnits="userSpaceOnUse"
       id="linearGradient3987"
       xlink:href="#linearGradient3764"
       inkscape:collect="always" />
    <linearGradient
       y2="-14.247867"
       x2="60.603821"
       y1="110.85932"
       x1="19.054567"
       gradientTransform="matrix(2.190067,0,0,0.456607,2.010652,26.8187)"
       gradientUnits="userSpaceOnUse"
       id="linearGradient3985"
       xlink:href="#linearGradient3793"
       inkscape:collect="always" />
    <radialGradient
       r="54.055691"
       fy="178.72423"
       fx="56.758472"
       cy="178.72423"
       cx="56.758472"
       gradientTransform="matrix(0.975909,-1.064101e-2,-1.602563e-2,0.172863,58.3197,131.7722)"
       gradientUnits="userSpaceOnUse"
       id="radialGradient3931"
       xlink:href="#linearGradient3753"
       inkscape:collect="always" />
    <linearGradient
       y2="103.56419"
       x2="34.797581"
       y1="39.395336"
       x1="51.893795"
       gradientTransform="matrix(1.001864,0,0,0.99814,-0.683612,32.4173)"
       gradientUnits="userSpaceOnUse"
       id="linearGradient3928"
       xlink:href="#linearGradient3753"
       inkscape:collect="always" />
    <linearGradient
       y2="101.41290"
       x2="174.67641"
       y1="66.834419"
       x1="163.93758"
       spreadMethod="reflect"
       gradientTransform="matrix(0.852803,0,0,1.172604,2.879134,26.8187)"
       gradientUnits="userSpaceOnUse"
       id="linearGradient3925"
       xlink:href="#linearGradient3764"
       inkscape:collect="always" />
    <linearGradient
       y2="21.063189"
       x2="549.92670"
       y1="21.063189"
       x1="542.22687"
       spreadMethod="reflect"
       gradientTransform="matrix(0.387254,3.035129e-19,2.191776e-17,5.253699,-96.21404,21.61075)"
       gradientUnits="userSpaceOnUse"
       id="linearGradient3922"
       xlink:href="#linearGradient3764"
       inkscape:collect="always" />
    <linearGradient
       y2="79.867683"
       x2="127.98763"
       y1="60.110321"
       x1="115.59602"
       gradientTransform="matrix(1.302365,0,0,0.767834,2.879134,26.8187)"
       gradientUnits="userSpaceOnUse"
       id="linearGradient3919"
       xlink:href="#linearGradient3753"
       inkscape:collect="always" />
    <linearGradient
       y2="74.252792"
       x2="37.945000"
       y1="47.678745"
       x1="43.776001"
       spreadMethod="reflect"
       gradientTransform="matrix(2.156205,0,0,0.463778,2.010652,26.8187)"
       gradientUnits="userSpaceOnUse"
       id="linearGradient99226"
       xlink:href="#linearGradient3764"
       inkscape:collect="always" />
    <linearGradient
       y2="-14.247867"
       x2="60.603821"
       y1="110.85932"
       x1="19.054567"
       gradientTransform="matrix(2.190067,0,0,0.456607,2.010652,26.8187)"
       gradientUnits="userSpaceOnUse"
       id="linearGradient99224"
       xlink:href="#linearGradient3793"
       inkscape:collect="always" />
    <linearGradient
       y2="80.095093"
       y1="106.35049"
       xlink:href="#linearGradient3864"
       x2="83.232246"
       x1="84.461273"
       spreadMethod="reflect"
       id="linearGradient3042"
       gradientUnits="userSpaceOnUse"
       gradientTransform="scale(1.515168,0.659993)" />
    <radialGradient
       xlink:href="#linearGradient3793"
       r="12.337215"
       id="radialGradient3038"
       gradientUnits="userSpaceOnUse"
       gradientTransform="scale(0.994856,1.005170)"
       fy="58.526436"
       fx="106.92339"
       cy="58.526436"
       cx="106.92339" />
    <linearGradient
       y2="42.978302"
       y1="75.272751"
       xlink:href="#linearGradient3864"
       x2="87.464302"
       x1="90.015602"
       id="linearGradient3036"
       gradientUnits="userSpaceOnUse"
       gradientTransform="matrix(1.168798,-0.157157,0.117244,0.807671,1.510584,17.01692)" />
    <linearGradient
       y2="3.6300881"
       y1="48.820446"
       xlink:href="#linearGradient3768"
       x2="99.515228"
       x1="95.439049"
       id="linearGradient3035"
       gradientUnits="userSpaceOnUse"
       gradientTransform="matrix(1.109941,7.013468e-2,2.042775e-2,0.865015,-0.786894,17.12097)" />
    <linearGradient
       y2="42.978302"
       y1="75.272751"
       xlink:href="#linearGradient3864"
       x2="87.464302"
       x1="90.015602"
       id="linearGradient3033"
       gradientUnits="userSpaceOnUse"
       gradientTransform="scale(1.180150,0.847350)" />
    <radialGradient
       xlink:href="#linearGradient3793"
       r="12.337215"
       id="radialGradient3029"
       gradientUnits="userSpaceOnUse"
       gradientTransform="scale(0.994856,1.005170)"
       fy="58.526436"
       fx="106.92339"
       cy="58.526436"
       cx="106.92339" />
    <linearGradient
       y2="3.6300881"
       y1="48.820446"
       xlink:href="#linearGradient3768"
       x2="99.515228"
       x1="95.439049"
       id="linearGradient2402"
       gradientUnits="userSpaceOnUse"
       gradientTransform="matrix(1.089182,0.225749,-0.104129,0.892963,-2.290338,-0.210819)" />
    <linearGradient
       y2="19.990744"
       y1="24.839106"
       xlink:href="#linearGradient3888"
       x2="83.031464"
       x1="103.45367"
       spreadMethod="reflect"
       id="linearGradient3914"
       gradientUnits="userSpaceOnUse"
       gradientTransform="matrix(0.641801,6.94928e-2,-0.166754,1.540059,-101.0428,-6.857255)" />
    <radialGradient
       xlink:href="#linearGradient3764"
       r="19.739889"
       id="radialGradient3913"
       gradientUnits="userSpaceOnUse"
       gradientTransform="matrix(0.560913,0.430133,-0.610509,0.871305,-56.93338,-27.71253)"
       fy="17.471869"
       fx="59.478207"
       cy="17.471869"
       cx="59.478207" />
    <radialGradient
       xlink:href="#linearGradient3793"
       r="9.7997169"
       id="radialGradient3910"
       gradientUnits="userSpaceOnUse"
       gradientTransform="matrix(0.709033,0.000000,0.000000,1.410371,0.000000,22.50000)"
       fy="1.9145001"
       fx="80.399055"
       cy="1.9145001"
       cx="80.399055" />
    <linearGradient
       y2="56.070068"
       y1="51.009369"
       xlink:href="#linearGradient3768"
       x2="86.998856"
       x1="98.577805"
       spreadMethod="reflect"
       id="linearGradient3886"
       gradientUnits="userSpaceOnUse"
       gradientTransform="matrix(1.357933,0.000000,0.000000,0.736413,0.000000,22.50000)" />
    <radialGradient
       xlink:href="#linearGradient3793"
       spreadMethod="reflect"
       r="1.5434121"
       id="radialGradient3878"
       gradientUnits="userSpaceOnUse"
       gradientTransform="matrix(1.092396,0.000000,0.000000,0.915419,0.000000,22.50000)"
       fy="7.3031745"
       fx="60.952446"
       cy="7.3031745"
       cx="60.952446" />
    <linearGradient
       y2="23.231722"
       y1="29.040941"
       xlink:href="#linearGradient3864"
       x2="106.56554"
       x1="89.196388"
       spreadMethod="reflect"
       id="linearGradient3875"
       gradientUnits="userSpaceOnUse"
       gradientTransform="matrix(0.823217,0.000000,0.000000,1.214747,0.000000,22.50000)" />
    <radialGradient
       xlink:href="#linearGradient3753"
       r="54.055691"
       id="radialGradient3808"
       gradientUnits="userSpaceOnUse"
       gradientTransform="scale(1.597871,0.625833)"
       fy="178.72423"
       fx="56.758472"
       cy="178.72423"
       cx="56.758472" />
    <radialGradient
       xlink:href="#linearGradient3753"
       r="54.055691"
       id="radialGradient3806"
       gradientUnits="userSpaceOnUse"
       gradientTransform="scale(1.597871,0.625833)"
       fy="178.72423"
       fx="56.758472"
       cy="178.72423"
       cx="56.758472" />
    <linearGradient
       y2="21.063189"
       y1="21.063189"
       xlink:href="#linearGradient3764"
       x2="549.92670"
       x1="542.22687"
       spreadMethod="reflect"
       id="linearGradient3801"
       gradientUnits="userSpaceOnUse"
       gradientTransform="matrix(0.387254,4.352117e-19,2.641454e-17,5.253698,-96.21402,21.61075)" />
    <linearGradient
       y2="-14.247867"
       y1="110.85932"
       xlink:href="#linearGradient3793"
       x2="60.603821"
       x1="19.054567"
       id="linearGradient3796"
       gradientUnits="userSpaceOnUse"
       gradientTransform="matrix(2.190067,0.000000,0.000000,0.456607,2.879134,26.81870)" />
    <linearGradient
       y2="79.867683"
       y1="60.110321"
       xlink:href="#linearGradient3753"
       x2="127.98763"
       x1="115.59602"
       id="linearGradient3790"
       gradientUnits="userSpaceOnUse"
       gradientTransform="matrix(1.302365,0,0,0.767834,2.879134,26.8187)" />
    <linearGradient
       y2="101.41290"
       y1="66.834419"
       xlink:href="#linearGradient3764"
       x2="174.67641"
       x1="163.93758"
       spreadMethod="reflect"
       id="linearGradient3784"
       gradientUnits="userSpaceOnUse"
       gradientTransform="matrix(0.852803,0,0,1.172604,2.879134,26.8187)" />
    <linearGradient
       y2="81.603989"
       y1="54.479355"
       xlink:href="#linearGradient3768"
       x2="34.213860"
       x1="36.659988"
       id="linearGradient3779"
       gradientUnits="userSpaceOnUse"
       gradientTransform="matrix(1.010798,-3.401142e-16,0.131934,0.989317,-9.095966,26.81870)" />
    <linearGradient
       y2="74.252792"
       y1="47.678745"
       xlink:href="#linearGradient3764"
       x2="37.945000"
       x1="43.776001"
       spreadMethod="reflect"
       id="linearGradient3767"
       gradientUnits="userSpaceOnUse"
       gradientTransform="matrix(2.156205,0.000000,0.000000,0.463778,2.879134,26.81870)" />
    <linearGradient
       y2="156.74283"
       y1="54.738117"
       xlink:href="#linearGradient3758"
       x2="91.426697"
       x1="79.201416"
       id="linearGradient3763"
       gradientUnits="userSpaceOnUse"
       gradientTransform="matrix(1.176705,0,0,0.84983,-0.683612,32.4173)" />
    <linearGradient
       y2="103.56419"
       y1="39.395336"
       xlink:href="#linearGradient3753"
       x2="34.797581"
       x1="51.893795"
       id="linearGradient3756"
       gradientUnits="userSpaceOnUse"
       gradientTransform="matrix(1.001864,0,0,0.99814,-0.683612,32.4173)" />
    <linearGradient
       id="linearGradient3753">
      <stop
         style="stop-color:#000409;stop-opacity:1.0000000;"
         offset="0.0000000"
         id="stop3754" />
      <stop
         style="stop-color:#000409;stop-opacity:0.0000000;"
         offset="1.0000000"
         id="stop3755" />
    </linearGradient>
    <linearGradient
       id="linearGradient3758">
      <stop
         style="stop-color:#3b7fc5;stop-opacity:1.0000000;"
         offset="0.0000000"
         id="stop3759" />
      <stop
         style="stop-color:#396da1;stop-opacity:1.0000000;"
         offset="1.0000000"
         id="stop3760" />
    </linearGradient>
    <linearGradient
       id="linearGradient3764">
      <stop
         style="stop-color:#ffffff;stop-opacity:1.0000000;"
         offset="0.0000000"
         id="stop3765" />
      <stop
         style="stop-color:#ffffff;stop-opacity:0.0000000;"
         offset="1.0000000"
         id="stop3766" />
    </linearGradient>
    <linearGradient
       id="linearGradient3768">
      <stop
         style="stop-color:#dddddd;stop-opacity:1.0000000;"
         offset="0.0000000"
         id="stop3769" />
      <stop
         style="stop-color:#ffffff;stop-opacity:1.0000000;"
         offset="1.0000000"
         id="stop3770" />
    </linearGradient>
    <linearGradient
       id="linearGradient3793">
      <stop
         style="stop-color:#000409;stop-opacity:1.0000000;"
         offset="0.0000000"
         id="stop3794" />
      <stop
         style="stop-color:#000409;stop-opacity:0.0000000;"
         offset="1.0000000"
         id="stop3795" />
    </linearGradient>
    <linearGradient
       id="linearGradient3864">
      <stop
         style="stop-color:#868686;stop-opacity:1.0000000;"
         offset="0.0000000"
         id="stop3865" />
      <stop
         style="stop-color:#e8e8e8;stop-opacity:1.0000000;"
         offset="1.0000000"
         id="stop3866" />
    </linearGradient>
    <linearGradient
       id="linearGradient3888">
      <stop
         style="stop-color:#2a832d;stop-opacity:0.94845361;"
         offset="0.0000000"
         id="stop3889" />
      <stop
         style="stop-color:#6bed71;stop-opacity:0.82474226;"
         offset="1.0000000"
         id="stop3890" />
    </linearGradient>
    <linearGradient
       id="linearGradient7925">
      <stop
         style="stop-color:#d0d0d0;stop-opacity:1.0000000;"
         offset="0.0000000"
         id="stop7926" />
      <stop
         style="stop-color:#a6a3a3;stop-opacity:1.0000000;"
         offset="1.0000000"
         id="stop7927" />
    </linearGradient>
    <linearGradient
       id="linearGradient9171">
      <stop
         style="stop-color:#fded00;stop-opacity:1.0000000;"
         offset="0.0000000"
         id="stop9172" />
      <stop
         style="stop-color:#eaa600;stop-opacity:1.0000000;"
         offset="1.0000000"
         id="stop9173" />
    </linearGradient>
    <linearGradient
       y2="198.26198"
       x2="173.2397"
       y1="198.26198"
       x1="25.224077"
       gradientTransform="translate(1.842338,-5.527013)"
       gradientUnits="userSpaceOnUse"
       id="linearGradient8802"
       xlink:href="#linearGradient3758"
       inkscape:collect="always" />
    <linearGradient
       gradientTransform="translate(1.842338,-5.527013)"
       gradientUnits="userSpaceOnUse"
       y2="198.26198"
       x2="173.2397"
       y1="198.26198"
       x1="25.224077"
       id="linearGradient8800"
       xlink:href="#linearGradient3758"
       inkscape:collect="always" />
    <radialGradient
       r="54.055691"
       fy="178.72423"
       fx="56.758472"
       cy="178.72423"
       cx="56.758472"
       gradientTransform="matrix(1.637818,0,0,0.505993,-4.426668,50.39642)"
       gradientUnits="userSpaceOnUse"
       id="radialGradient8798"
       xlink:href="#linearGradient3753"
       inkscape:collect="always" />
    <linearGradient
       y2="156.74283"
       x2="91.426697"
       y1="54.738117"
       x1="79.201416"
       gradientTransform="matrix(1.176705,0,0,0.84983,-0.683612,32.4173)"
       gradientUnits="userSpaceOnUse"
       id="linearGradient8796"
       xlink:href="#linearGradient3758"
       inkscape:collect="always" />
    <linearGradient
       y2="74.252792"
       x2="37.945000"
       y1="47.678745"
       x1="43.776001"
       spreadMethod="reflect"
       gradientTransform="matrix(2.156205,0,0,0.463778,2.010652,26.8187)"
       gradientUnits="userSpaceOnUse"
       id="linearGradient8794"
       xlink:href="#linearGradient3764"
       inkscape:collect="always" />
    <linearGradient
       y2="-14.247867"
       x2="60.603821"
       y1="110.85932"
       x1="19.054567"
       gradientTransform="matrix(2.190067,0,0,0.456607,2.010652,26.8187)"
       gradientUnits="userSpaceOnUse"
       id="linearGradient8792"
       xlink:href="#linearGradient3793"
       inkscape:collect="always" />
    <radialGradient
       r="54.055691"
       fy="178.72423"
       fx="56.758472"
       cy="178.72423"
       cx="56.758472"
       gradientTransform="matrix(0.975909,-1.064101e-2,-1.602563e-2,0.172863,58.3197,131.7722)"
       gradientUnits="userSpaceOnUse"
       id="radialGradient8790"
       xlink:href="#linearGradient3753"
       inkscape:collect="always" />
    <linearGradient
       y2="103.56419"
       x2="34.797581"
       y1="39.395336"
       x1="51.893795"
       gradientTransform="matrix(1.001864,0,0,0.99814,-0.683612,32.4173)"
       gradientUnits="userSpaceOnUse"
       id="linearGradient8788"
       xlink:href="#linearGradient3753"
       inkscape:collect="always" />
    <linearGradient
       y2="101.41290"
       x2="174.67641"
       y1="66.834419"
       x1="163.93758"
       spreadMethod="reflect"
       gradientTransform="matrix(0.852803,0,0,1.172604,2.879134,26.8187)"
       gradientUnits="userSpaceOnUse"
       id="linearGradient8786"
       xlink:href="#linearGradient3764"
       inkscape:collect="always" />
    <linearGradient
       y2="21.063189"
       x2="549.92670"
       y1="21.063189"
       x1="542.22687"
       spreadMethod="reflect"
       gradientTransform="matrix(0.387254,3.035129e-19,2.191776e-17,5.253699,-96.21404,21.61075)"
       gradientUnits="userSpaceOnUse"
       id="linearGradient8784"
       xlink:href="#linearGradient3764"
       inkscape:collect="always" />
    <linearGradient
       y2="79.867683"
       x2="127.98763"
       y1="60.110321"
       x1="115.59602"
       gradientTransform="matrix(1.302365,0,0,0.767834,2.879134,26.8187)"
       gradientUnits="userSpaceOnUse"
       id="linearGradient8782"
       xlink:href="#linearGradient3753"
       inkscape:collect="always" />
    <linearGradient
       y2="74.252792"
       x2="37.945000"
       y1="47.678745"
       x1="43.776001"
       spreadMethod="reflect"
       gradientTransform="matrix(2.156205,0,0,0.463778,2.010652,26.8187)"
       gradientUnits="userSpaceOnUse"
       id="linearGradient8771"
       xlink:href="#linearGradient3764"
       inkscape:collect="always" />
    <linearGradient
       y2="-14.247867"
       x2="60.603821"
       y1="110.85932"
       x1="19.054567"
       gradientTransform="matrix(2.190067,0,0,0.456607,2.010652,26.8187)"
       gradientUnits="userSpaceOnUse"
       id="linearGradient8769"
       xlink:href="#linearGradient3793"
       inkscape:collect="always" />
    <linearGradient
       y2="80.095093"
       y1="106.35049"
       xlink:href="#linearGradient3864"
       x2="83.232246"
       x1="84.461273"
       spreadMethod="reflect"
       id="linearGradient8767"
       gradientUnits="userSpaceOnUse"
       gradientTransform="scale(1.515168,0.659993)" />
    <radialGradient
       xlink:href="#linearGradient3793"
       r="12.337215"
       id="radialGradient8765"
       gradientUnits="userSpaceOnUse"
       gradientTransform="scale(0.994856,1.005170)"
       fy="58.526436"
       fx="106.92339"
       cy="58.526436"
       cx="106.92339" />
    <linearGradient
       y2="42.978302"
       y1="75.272751"
       xlink:href="#linearGradient3864"
       x2="87.464302"
       x1="90.015602"
       id="linearGradient8763"
       gradientUnits="userSpaceOnUse"
       gradientTransform="matrix(1.168798,-0.157157,0.117244,0.807671,1.510584,17.01692)" />
    <linearGradient
       y2="3.6300881"
       y1="48.820446"
       xlink:href="#linearGradient3768"
       x2="99.515228"
       x1="95.439049"
       id="linearGradient8761"
       gradientUnits="userSpaceOnUse"
       gradientTransform="matrix(1.109941,7.013468e-2,2.042775e-2,0.865015,-0.786894,17.12097)" />
    <linearGradient
       y2="42.978302"
       y1="75.272751"
       xlink:href="#linearGradient3864"
       x2="87.464302"
       x1="90.015602"
       id="linearGradient8759"
       gradientUnits="userSpaceOnUse"
       gradientTransform="scale(1.180150,0.847350)" />
    <radialGradient
       xlink:href="#linearGradient3793"
       r="12.337215"
       id="radialGradient8757"
       gradientUnits="userSpaceOnUse"
       gradientTransform="scale(0.994856,1.005170)"
       fy="58.526436"
       fx="106.92339"
       cy="58.526436"
       cx="106.92339" />
    <linearGradient
       y2="3.6300881"
       y1="48.820446"
       xlink:href="#linearGradient3768"
       x2="99.515228"
       x1="95.439049"
       id="linearGradient8755"
       gradientUnits="userSpaceOnUse"
       gradientTransform="matrix(1.089182,0.225749,-0.104129,0.892963,-2.290338,-0.210819)" />
    <linearGradient
       y2="19.990744"
       y1="24.839106"
       xlink:href="#linearGradient3888"
       x2="83.031464"
       x1="103.45367"
       spreadMethod="reflect"
       id="linearGradient8753"
       gradientUnits="userSpaceOnUse"
       gradientTransform="matrix(0.641801,6.94928e-2,-0.166754,1.540059,-101.0428,-6.857255)" />
    <radialGradient
       xlink:href="#linearGradient3764"
       r="19.739889"
       id="radialGradient8751"
       gradientUnits="userSpaceOnUse"
       gradientTransform="matrix(0.560913,0.430133,-0.610509,0.871305,-56.93338,-27.71253)"
       fy="17.471869"
       fx="59.478207"
       cy="17.471869"
       cx="59.478207" />
    <radialGradient
       xlink:href="#linearGradient3793"
       r="9.7997169"
       id="radialGradient8749"
       gradientUnits="userSpaceOnUse"
       gradientTransform="matrix(0.709033,0.000000,0.000000,1.410371,0.000000,22.50000)"
       fy="1.9145001"
       fx="80.399055"
       cy="1.9145001"
       cx="80.399055" />
    <linearGradient
       y2="56.070068"
       y1="51.009369"
       xlink:href="#linearGradient3768"
       x2="86.998856"
       x1="98.577805"
       spreadMethod="reflect"
       id="linearGradient8747"
       gradientUnits="userSpaceOnUse"
       gradientTransform="matrix(1.357933,0.000000,0.000000,0.736413,0.000000,22.50000)" />
    <radialGradient
       xlink:href="#linearGradient3793"
       spreadMethod="reflect"
       r="1.5434121"
       id="radialGradient8745"
       gradientUnits="userSpaceOnUse"
       gradientTransform="matrix(1.092396,0.000000,0.000000,0.915419,0.000000,22.50000)"
       fy="7.3031745"
       fx="60.952446"
       cy="7.3031745"
       cx="60.952446" />
    <linearGradient
       y2="23.231722"
       y1="29.040941"
       xlink:href="#linearGradient3864"
       x2="106.56554"
       x1="89.196388"
       spreadMethod="reflect"
       id="linearGradient8743"
       gradientUnits="userSpaceOnUse"
       gradientTransform="matrix(0.823217,0.000000,0.000000,1.214747,0.000000,22.50000)" />
    <radialGradient
       xlink:href="#linearGradient3753"
       r="54.055691"
       id="radialGradient8741"
       gradientUnits="userSpaceOnUse"
       gradientTransform="scale(1.597871,0.625833)"
       fy="178.72423"
       fx="56.758472"
       cy="178.72423"
       cx="56.758472" />
    <radialGradient
       xlink:href="#linearGradient3753"
       r="54.055691"
       id="radialGradient8739"
       gradientUnits="userSpaceOnUse"
       gradientTransform="scale(1.597871,0.625833)"
       fy="178.72423"
       fx="56.758472"
       cy="178.72423"
       cx="56.758472" />
    <linearGradient
       y2="21.063189"
       y1="21.063189"
       xlink:href="#linearGradient3764"
       x2="549.92670"
       x1="542.22687"
       spreadMethod="reflect"
       id="linearGradient8737"
       gradientUnits="userSpaceOnUse"
       gradientTransform="matrix(0.387254,4.352117e-19,2.641454e-17,5.253698,-96.21402,21.61075)" />
    <linearGradient
       y2="-14.247867"
       y1="110.85932"
       xlink:href="#linearGradient3793"
       x2="60.603821"
       x1="19.054567"
       id="linearGradient8735"
       gradientUnits="userSpaceOnUse"
       gradientTransform="matrix(2.190067,0.000000,0.000000,0.456607,2.879134,26.81870)" />
    <linearGradient
       y2="79.867683"
       y1="60.110321"
       xlink:href="#linearGradient3753"
       x2="127.98763"
       x1="115.59602"
       id="linearGradient8733"
       gradientUnits="userSpaceOnUse"
       gradientTransform="matrix(1.302365,0,0,0.767834,2.879134,26.8187)" />
    <linearGradient
       y2="101.41290"
       y1="66.834419"
       xlink:href="#linearGradient3764"
       x2="174.67641"
       x1="163.93758"
       spreadMethod="reflect"
       id="linearGradient8731"
       gradientUnits="userSpaceOnUse"
       gradientTransform="matrix(0.852803,0,0,1.172604,2.879134,26.8187)" />
    <linearGradient
       y2="81.603989"
       y1="54.479355"
       xlink:href="#linearGradient3768"
       x2="34.213860"
       x1="36.659988"
       id="linearGradient8729"
       gradientUnits="userSpaceOnUse"
       gradientTransform="matrix(1.010798,-3.401142e-16,0.131934,0.989317,-9.095966,26.81870)" />
    <linearGradient
       y2="74.252792"
       y1="47.678745"
       xlink:href="#linearGradient3764"
       x2="37.945000"
       x1="43.776001"
       spreadMethod="reflect"
       id="linearGradient8727"
       gradientUnits="userSpaceOnUse"
       gradientTransform="matrix(2.156205,0.000000,0.000000,0.463778,2.879134,26.81870)" />
    <linearGradient
       y2="156.74283"
       y1="54.738117"
       xlink:href="#linearGradient3758"
       x2="91.426697"
       x1="79.201416"
       id="linearGradient8725"
       gradientUnits="userSpaceOnUse"
       gradientTransform="matrix(1.176705,0,0,0.84983,-0.683612,32.4173)" />
    <linearGradient
       y2="103.56419"
       y1="39.395336"
       xlink:href="#linearGradient3753"
       x2="34.797581"
       x1="51.893795"
       id="linearGradient8723"
       gradientUnits="userSpaceOnUse"
       gradientTransform="matrix(1.001864,0,0,0.99814,-0.683612,32.4173)" />
    <linearGradient
       id="linearGradient8717">
      <stop
         style="stop-color:#000409;stop-opacity:1.0000000;"
         offset="0.0000000"
         id="stop8719" />
      <stop
         style="stop-color:#000409;stop-opacity:0.0000000;"
         offset="1.0000000"
         id="stop8721" />
    </linearGradient>
    <linearGradient
       id="linearGradient8711">
      <stop
         style="stop-color:#3b7fc5;stop-opacity:1.0000000;"
         offset="0.0000000"
         id="stop8713" />
      <stop
         style="stop-color:#396da1;stop-opacity:1.0000000;"
         offset="1.0000000"
         id="stop8715" />
    </linearGradient>
    <linearGradient
       id="linearGradient8705">
      <stop
         style="stop-color:#ffffff;stop-opacity:1.0000000;"
         offset="0.0000000"
         id="stop8707" />
      <stop
         style="stop-color:#ffffff;stop-opacity:0.0000000;"
         offset="1.0000000"
         id="stop8709" />
    </linearGradient>
    <linearGradient
       id="linearGradient8699">
      <stop
         style="stop-color:#dddddd;stop-opacity:1.0000000;"
         offset="0.0000000"
         id="stop8701" />
      <stop
         style="stop-color:#ffffff;stop-opacity:1.0000000;"
         offset="1.0000000"
         id="stop8703" />
    </linearGradient>
    <linearGradient
       id="linearGradient8693">
      <stop
         style="stop-color:#000409;stop-opacity:1.0000000;"
         offset="0.0000000"
         id="stop8695" />
      <stop
         style="stop-color:#000409;stop-opacity:0.0000000;"
         offset="1.0000000"
         id="stop8697" />
    </linearGradient>
    <linearGradient
       id="linearGradient8687">
      <stop
         style="stop-color:#868686;stop-opacity:1.0000000;"
         offset="0.0000000"
         id="stop8689" />
      <stop
         style="stop-color:#e8e8e8;stop-opacity:1.0000000;"
         offset="1.0000000"
         id="stop8691" />
    </linearGradient>
    <linearGradient
       id="linearGradient8681">
      <stop
         style="stop-color:#2a832d;stop-opacity:0.94845361;"
         offset="0.0000000"
         id="stop8683" />
      <stop
         style="stop-color:#6bed71;stop-opacity:0.82474226;"
         offset="1.0000000"
         id="stop8685" />
    </linearGradient>
    <linearGradient
       id="linearGradient8675">
      <stop
         style="stop-color:#d0d0d0;stop-opacity:1.0000000;"
         offset="0.0000000"
         id="stop8677" />
      <stop
         style="stop-color:#a6a3a3;stop-opacity:1.0000000;"
         offset="1.0000000"
         id="stop8679" />
    </linearGradient>
    <linearGradient
       id="linearGradient8669">
      <stop
         style="stop-color:#fded00;stop-opacity:1.0000000;"
         offset="0.0000000"
         id="stop8671" />
      <stop
         style="stop-color:#eaa600;stop-opacity:1.0000000;"
         offset="1.0000000"
         id="stop8673" />
    </linearGradient>
    <linearGradient
       inkscape:collect="always"
       id="linearGradient6053">
      <stop
         style="stop-color:#eeeeef;stop-opacity:1;"
         offset="0"
         id="stop6054" />
      <stop
         style="stop-color:#eeeeef;stop-opacity:0;"
         offset="1"
         id="stop6055" />
    </linearGradient>
    <linearGradient
       inkscape:collect="always"
       id="linearGradient7300">
      <stop
         style="stop-color:#ffffff;stop-opacity:1;"
         offset="0"
         id="stop7301" />
      <stop
         style="stop-color:#ffffff;stop-opacity:0;"
         offset="1"
         id="stop7302" />
    </linearGradient>
    <linearGradient
       inkscape:collect="always"
       xlink:href="#linearGradient3758"
       id="linearGradient8885"
       gradientUnits="userSpaceOnUse"
       gradientTransform="translate(1.842338,-5.527013)"
       x1="25.224077"
       y1="198.26198"
       x2="173.2397"
       y2="198.26198" />
    <linearGradient
       inkscape:collect="always"
       xlink:href="#linearGradient7925"
       id="linearGradient9030"
       gradientUnits="userSpaceOnUse"
       gradientTransform="matrix(-0.370995,-0.625561,0.62196,-0.368859,-20.30556,21.09437)"
       x1="71.452438"
       y1="-29.096573"
       x2="60.567429"
       y2="-16.186733" />
    <linearGradient
       inkscape:collect="always"
       xlink:href="#linearGradient9171"
       id="linearGradient9032"
       gradientUnits="userSpaceOnUse"
       gradientTransform="matrix(-0.374448,-0.631383,0.616225,-0.365458,-20.30556,21.09437)"
       x1="39.069633"
       y1="-77.680229"
       x2="22.689779"
       y2="-57.829243" />
    <linearGradient
       inkscape:collect="always"
       xlink:href="#linearGradient6053"
       id="linearGradient9034"
       gradientUnits="userSpaceOnUse"
       gradientTransform="matrix(-0.364628,-0.614825,0.63282,-0.3753,-20.30556,21.09437)"
       x1="88.666908"
       y1="-4.4481120"
       x2="75.682137"
       y2="-17.166708" />
    <linearGradient
       inkscape:collect="always"
       xlink:href="#linearGradient7300"
       id="linearGradient9036"
       gradientUnits="userSpaceOnUse"
       gradientTransform="matrix(-0.352986,-0.595194,0.653692,-0.387678,-20.30556,21.09437)"
       x1="89.202263"
       y1="-6.3584766"
       x2="88.669182"
       y2="-6.8782883" />
    <linearGradient
       inkscape:collect="always"
       xlink:href="#linearGradient9171"
       id="linearGradient9038"
       gradientUnits="userSpaceOnUse"
       gradientTransform="matrix(-0.426208,-0.71866,0.541389,-0.321076,-20.30556,21.09437)"
       x1="24.321480"
       y1="-76.386032"
       x2="14.758960"
       y2="-65.390717" />
    <linearGradient
       inkscape:collect="always"
       xlink:href="#linearGradient9171"
       id="linearGradient9040"
       gradientUnits="userSpaceOnUse"
       gradientTransform="matrix(-0.33682,-0.567936,0.685066,-0.406285,-20.30556,21.09437)"
       x1="38.696251"
       y1="-68.062698"
       x2="28.946556"
       y2="-60.323044" />
    <linearGradient
       inkscape:collect="always"
       xlink:href="#linearGradient9171"
       id="linearGradient9042"
       gradientUnits="userSpaceOnUse"
       gradientTransform="matrix(-0.376934,-0.635576,0.612159,-0.363047,-20.30556,21.09437)"
       x1="22.234993"
       y1="-64.578178"
       x2="29.839203"
       y2="-74.328110" />
    <linearGradient
       inkscape:collect="always"
       xlink:href="#linearGradient7925"
       id="linearGradient9054"
       gradientUnits="userSpaceOnUse"
       gradientTransform="matrix(-0.565637,-0.166808,0.209385,-0.710013,-86.47191,105.0328)"
       x1="68.289116"
       y1="51.916901"
       x2="25.700886"
       y2="24.944025" />
    <linearGradient
       inkscape:collect="always"
       xlink:href="#linearGradient6053"
       id="linearGradient9056"
       gradientUnits="userSpaceOnUse"
       gradientTransform="matrix(-0.645192,-0.190269,0.183567,-0.622465,-86.47191,105.4671)"
       x1="31.621386"
       y1="89.565842"
       x2="46.098869"
       y2="60.885803" />
    <linearGradient
       inkscape:collect="always"
       xlink:href="#linearGradient3758"
       id="linearGradient9058"
       gradientUnits="userSpaceOnUse"
       gradientTransform="translate(1.842338,-5.527013)"
       x1="25.224077"
       y1="198.26198"
       x2="173.2397"
       y2="198.26198" />
    <linearGradient
       inkscape:collect="always"
       xlink:href="#linearGradient3758"
       id="linearGradient9062"
       gradientUnits="userSpaceOnUse"
       gradientTransform="translate(-113.50175,258.65012)"
       x1="25.224077"
       y1="198.26198"
       x2="173.2397"
       y2="198.26198" />
    <linearGradient
       inkscape:collect="always"
       xlink:href="#linearGradient3753"
       id="linearGradient9069"
       gradientUnits="userSpaceOnUse"
       gradientTransform="matrix(1.302365,0,0,0.767834,-112.46496,290.99583)"
       x1="115.59602"
       y1="60.110321"
       x2="127.98763"
       y2="79.867683" />
    <linearGradient
       inkscape:collect="always"
       xlink:href="#linearGradient3764"
       id="linearGradient9072"
       gradientUnits="userSpaceOnUse"
       gradientTransform="matrix(0.3872541,0,0,5.2537007,-209.54009,286.03223)"
       spreadMethod="reflect"
       x1="542.22687"
       y1="21.063189"
       x2="549.92670"
       y2="21.063189" />
    <linearGradient
       inkscape:collect="always"
       xlink:href="#linearGradient3764"
       id="linearGradient9075"
       gradientUnits="userSpaceOnUse"
       gradientTransform="matrix(0.852803,0,0,1.172604,-112.46496,290.99583)"
       spreadMethod="reflect"
       x1="163.93758"
       y1="66.834419"
       x2="174.67641"
       y2="101.41290" />
    <linearGradient
       inkscape:collect="always"
       xlink:href="#linearGradient3753"
       id="linearGradient9078"
       gradientUnits="userSpaceOnUse"
       gradientTransform="matrix(1.001864,0,0,0.99814,-116.0277,296.59443)"
       x1="51.893795"
       y1="39.395336"
       x2="34.797581"
       y2="103.56419" />
    <radialGradient
       inkscape:collect="always"
       xlink:href="#linearGradient3753"
       id="radialGradient9081"
       gradientUnits="userSpaceOnUse"
       gradientTransform="matrix(0.975909,-1.064101e-2,-1.602563e-2,0.172863,-57.02439,395.94933)"
       cx="56.758472"
       cy="178.72423"
       fx="56.758472"
       fy="178.72423"
       r="54.055691" />
    <linearGradient
       inkscape:collect="always"
       xlink:href="#linearGradient3793"
       id="linearGradient9135"
       gradientUnits="userSpaceOnUse"
       gradientTransform="matrix(2.190067,0,0,0.456607,-113.33344,290.99583)"
       x1="19.054567"
       y1="110.85932"
       x2="60.603821"
       y2="-14.247867" />
    <linearGradient
       inkscape:collect="always"
       xlink:href="#linearGradient3764"
       id="linearGradient9137"
       gradientUnits="userSpaceOnUse"
       gradientTransform="matrix(2.156205,0,0,0.463778,-113.33344,290.99583)"
       spreadMethod="reflect"
       x1="43.776001"
       y1="47.678745"
       x2="37.945000"
       y2="74.252792" />
    <linearGradient
       inkscape:collect="always"
       xlink:href="#linearGradient3758"
       id="linearGradient9140"
       gradientUnits="userSpaceOnUse"
       gradientTransform="matrix(1.176705,0,0,0.84983,-116.0277,296.59443)"
       x1="79.201416"
       y1="54.738117"
       x2="91.426697"
       y2="156.74283" />
    <radialGradient
       inkscape:collect="always"
       xlink:href="#linearGradient3753"
       id="radialGradient9143"
       gradientUnits="userSpaceOnUse"
       gradientTransform="matrix(1.637818,0,0,0.505993,-119.77076,314.57355)"
       cx="56.758472"
       cy="178.72423"
       fx="56.758472"
       fy="178.72423"
       r="54.055691" />
    <linearGradient
       inkscape:collect="always"
       xlink:href="#linearGradient8705"
       id="linearGradient11425"
       x1="262.65488"
       y1="511.93057"
       x2="484.858"
       y2="511.93057"
       gradientUnits="userSpaceOnUse" />
  </defs>
  <sodipodi:namedview
     id="base"
     pagecolor="#ffffff"
     bordercolor="#666666"
     borderopacity="1.0"
     gridtolerance="10000"
     guidetolerance="10"
     objecttolerance="10"
     inkscape:pageopacity="0.0"
     inkscape:pageshadow="2"
     inkscape:zoom="1.4"
     inkscape:cx="613.74135"
     inkscape:cy="532.46196"
     inkscape:document-units="px"
     inkscape:current-layer="layer1"
     showguides="true"
     inkscape:guide-bbox="true"
     inkscape:window-width="1680"
     inkscape:window-height="1000"
     inkscape:window-x="0"
     inkscape:window-y="25">
    <sodipodi:guide
       orientation="vertical"
       position="373.75644"
       id="guide2160" />
    <sodipodi:guide
       orientation="horizontal"
       position="540.43161"
       id="guide2162" />
  </sodipodi:namedview>
  <metadata
     id="metadata7">
    <rdf:RDF>
      <cc:Work
         rdf:about="">
        <dc:format>image/svg+xml</dc:format>
        <dc:type
           rdf:resource="http://purl.org/dc/dcmitype/StillImage" />
      </cc:Work>
    </rdf:RDF>
  </metadata>
  <g
     inkscape:label="Layer 1"
     inkscape:groupmode="layer"
     id="layer1">
    <path
       sodipodi:type="arc"
       style="opacity:1;fill:#668acc;fill-opacity:1;stroke:#000000;stroke-width:3;stroke-miterlimit:4;stroke-dasharray:none;stroke-dashoffset:0;stroke-opacity:1"
       id="path2170"
       sodipodi:cx="373.75644"
       sodipodi:cy="511.93057"
       sodipodi:rx="172.73608"
       sodipodi:ry="172.73608"
       d="M 546.49252 511.93057 A 172.73608 172.73608 0 1 1  201.02036,511.93057 A 172.73608 172.73608 0 1 1  546.49252 511.93057 z" />
    <path
       sodipodi:type="arc"
       style="opacity:1;fill:url(#linearGradient11425);fill-opacity:1.0;stroke:#000000;stroke-width:3;stroke-miterlimit:4;stroke-dasharray:none;stroke-dashoffset:0;stroke-opacity:1;font-size:40"
       id="path2172"
       sodipodi:cx="373.75644"
       sodipodi:cy="511.93057"
       sodipodi:rx="109.60155"
       sodipodi:ry="109.60155"
       d="M 483.35799 511.93057 A 109.60155 109.60155 0 1 1  264.15489,511.93057 A 109.60155 109.60155 0 1 1  483.35799 511.93057 z" />
    <text
       xml:space="preserve"
       style="font-size:48.00000381px;font-style:normal;font-weight:bold;text-align:center;text-anchor:middle;fill:#ffffff;fill-opacity:1;stroke:#000000;stroke-width:1.39999998;stroke-linecap:butt;stroke-linejoin:miter;stroke-miterlimit:4;stroke-dasharray:none;stroke-opacity:1;font-family:Bitstream Vera Serif"
       id="text3146"><textPath
         xlink:href="#path3360"
         startOffset="50%"
         id="textPath4333"><tspan
   id="tspan3148"
   style="font-size:48.00000381px;text-align:center;text-anchor:middle;fill:#ffffff;fill-opacity:1;stroke:#000000;stroke-width:1.39999998;stroke-miterlimit:4;stroke-dasharray:none;stroke-opacity:1;font-family:Bitstream Vera Serif">Grid Application Toolkit</tspan></textPath></text>
    <path
       sodipodi:type="arc"
       style="font-size:40px;text-align:center;text-anchor:middle;opacity:1;fill:none;fill-opacity:1;stroke:none;stroke-width:3;stroke-miterlimit:4;stroke-dasharray:none;stroke-dashoffset:0;stroke-opacity:1"
       id="path3154"
       sodipodi:cx="373.75644"
       sodipodi:cy="511.93057"
       sodipodi:rx="123.74368"
       sodipodi:ry="123.74368"
       d="M 497.50012 511.93057 A 123.74368 123.74368 0 1 1  250.01276,511.93057 A 123.74368 123.74368 0 1 1  497.50012 511.93057 z"
       transform="matrix(-0.6427877,0.7660446,-0.7660446,-0.6427877,1005.659,554.17393)" />
    <g
       id="layer2"
       inkscape:label="back"
       transform="translate(-115.34409,264.17713)" />
    <g
       id="layer4"
       inkscape:label="open"
       transform="translate(-115.34409,264.17713)" />
    <g
       id="layer3"
       inkscape:label="tools"
       transform="translate(-115.34409,264.17713)" />
    <g
       id="g9163"
       transform="translate(389.99999,174.28572)"
       inkscape:transform-center-x="-25">
      <path
         d="M 61.72264,405.0067 C 61.72264,420.11268 22.08491,432.35848 -26.810727,432.35848 C -75.706357,432.35848 -115.3441,420.11268 -115.3441,405.0067 C -115.3441,389.90073 -75.706357,377.65492 -26.810727,377.65492 C 22.08491,377.65492 61.72264,389.90073 61.72264,405.0067 z "
         id="path3802"
         style="fill:url(#radialGradient9143);fill-opacity:1;stroke:none;stroke-width:1.25;stroke-linecap:round;stroke-linejoin:round;stroke-miterlimit:4;stroke-opacity:0.5944443" />
      <path
         d="M -101.7319,333.18515 L -95.160188,397.98839 C -95.075361,399.43046 -94.48157,402.14493 -92.615369,402.82355 L -8.81564,433.4814 C -5.93151,434.92347 -1.05634,434.32968 1.31883,433.22692 L 58.03789,401.29666 C 60.58271,400.1939 62.36409,398.3277 62.61857,395.69806 L 69.95372,334.62241 C 70.37786,330.82012 73.85579,332.36195 74.27992,329.06862 L 75.17061,321.05244 C 75.34026,319.9921 74.23751,318.80452 72.75303,318.38038 L -35.208063,303.91974 C -37.371158,303.32595 -40.252879,303.36836 -42.288733,303.91974 L -103.90221,317.49691 C -105.51393,318.00588 -106.61668,319.53277 -106.44703,320.5507 L -106.44703,328.18515 C -106.0629,330.88469 -102.87947,329.21321 -101.7319,333.18515 z "
         id="path3748"
         style="fill:url(#linearGradient9140);fill-opacity:1;fill-rule:evenodd;stroke:#00287b;stroke-width:0.3125;stroke-linecap:butt;stroke-linejoin:miter;stroke-miterlimit:4;stroke-opacity:1" />
      <path
         d="M -96.059797,318.07058 L -2.46988,338.07544 L 64.84912,319.91255 L -39.159578,305.51688 L -96.059797,318.07058 z "
         id="path3750"
         style="opacity:0.59715642;fill:url(#linearGradient9135);fill-opacity:1;fill-rule:evenodd;stroke:url(#linearGradient9137);stroke-width:1.25;stroke-linecap:butt;stroke-linejoin:round;stroke-miterlimit:4;stroke-opacity:0.5944443" />
      <g
         id="g102710"
         transform="translate(44.32521,293.65453)">
        <path
           d="M -62.578656,10.094985 L -68.280581,9.074736 L -60.563565,-19.711979 C -60.637958,-21.791937 -62.217647,-22.302476 -61.932294,-24.460442 C -61.539877,-26.759521 -59.949471,-29.09239 -58.815456,-31.966611 L -52.860744,-30.554944 C -53.106693,-27.235969 -52.417751,-23.253408 -53.613749,-21.536379 C -54.166574,-20.048605 -56.344716,-20.844993 -56.738042,-19.316475 L -62.578656,10.094985 z "
           id="path4806"
           sodipodi:nodetypes="ccccccccc"
           style="fill:url(#linearGradient9030);fill-opacity:1;fill-rule:evenodd;stroke:#606060;stroke-width:0.6207181pt;stroke-linecap:butt;stroke-linejoin:miter;stroke-opacity:1" />
        <path
           id="path4807"
           d="M -68.1433,8.268227 C -68.778991,8.2969201 -69.378926,8.4132737 -69.9558,8.580727 C -70.107388,8.6230824 -70.243015,8.6960747 -70.3308,8.799477 C -71.006908,9.6669314 -69.870609,12.390759 -70.61205,14.955727 C -71.655189,20.142854 -77.60817,30.811499 -79.79955,36.768227 L -64.92455,40.111977 C -64.423782,33.631834 -65.219265,22.590493 -63.86205,16.518227 C -63.332068,14.411425 -60.52468,11.502909 -60.86205,10.424477 C -60.875316,10.388969 -60.903699,10.330665 -60.92455,10.299477 C -60.947364,10.269401 -60.987369,10.231229 -61.0183,10.205727 C -63.103714,8.973705 -65.765343,8.1608935 -68.1433,8.268227 z "
           style="fill:url(#linearGradient9032);fill-opacity:1;fill-rule:evenodd;stroke:#aa4200;stroke-width:0.6207181pt;stroke-linecap:butt;stroke-linejoin:miter;stroke-opacity:1" />
        <path
           d="M -60.017368,-18.794735 C -60.09176,-20.874693 -61.868221,-21.945223 -61.582868,-24.103189 C -61.190451,-26.402268 -59.859664,-28.716498 -58.725649,-31.59072 L -53.130678,-30.101035 C -53.376627,-26.782061 -52.90309,-23.619112 -54.099089,-21.902082 C -54.651914,-20.414308 -57.256126,-19.875321 -57.649452,-18.346803 L -60.017368,-18.794735 z "
           id="path4810"
           sodipodi:nodetypes="ccccccc"
           style="fill:url(#linearGradient9034);fill-opacity:1;fill-rule:evenodd;stroke:none;stroke-width:0.85592375pt;stroke-linecap:butt;stroke-linejoin:miter;stroke-opacity:1" />
        <path
           d="M -62.121852,-22.980553 C -61.238943,-21.62927 -59.904883,-20.704013 -58.202245,-20.37798 C -56.499605,-20.051945 -54.385203,-20.375759 -54.385203,-20.375759 L -54.049908,-21.199779 C -54.049908,-21.199779 -56.348815,-20.186179 -57.96685,-20.496013 C -59.584886,-20.805849 -61.368058,-22.892786 -61.950967,-23.784921 L -62.121852,-22.980553 z "
           id="path4808"
           sodipodi:nodetypes="ccccccc"
           style="fill:#000000;fill-opacity:1;fill-rule:evenodd;stroke:none;stroke-width:1pt;stroke-linecap:butt;stroke-linejoin:miter;stroke-opacity:1" />
        <path
           d="M -52.80275,-30.27846 L -58.804363,-31.726595 C -58.804363,-31.726595 -58.852057,-30.209613 -59.352666,-29.912722 C -59.853275,-29.615831 -53.391799,-28.305092 -53.391799,-28.305092 C -52.809703,-28.920982 -53.284724,-29.721948 -52.80275,-30.27846 z "
           id="path6057"
           sodipodi:nodetypes="ccccc"
           style="fill:url(#linearGradient9036);fill-opacity:1;fill-rule:evenodd;stroke:none;stroke-width:1pt;stroke-linecap:butt;stroke-linejoin:miter;stroke-opacity:1" />
        <path
           sodipodi:nodetypes="ccccsc"
           id="path9175"
           d="M -65.11205,18.549477 C -66.856898,19.274323 -68.557626,32.266899 -68.440989,38.891521 L -65.503489,39.547771 C -65.340775,35.55268 -65.218922,26.156205 -64.5808,18.799477 C -64.713108,18.626302 -64.85246,18.550398 -64.98705,18.549477 C -65.025531,18.552525 -65.07349,18.533458 -65.11205,18.549477 z "
           style="fill:url(#linearGradient9038);fill-opacity:1;fill-rule:evenodd;stroke:none;stroke-width:1pt;stroke-linecap:butt;stroke-linejoin:miter;stroke-opacity:1" />
        <path
           sodipodi:nodetypes="cscccssssc"
           id="path9176"
           d="M -71.0808,17.986977 C -71.095294,17.990766 -71.127808,18.011921 -71.1433,18.018227 C -71.167294,18.029595 -71.21076,18.063549 -71.23705,18.080727 C -71.557099,19.639441 -77.623878,32.174887 -79.107087,36.554362 L -75.888337,37.273112 C -73.844303,32.567456 -69.906383,19.055312 -70.8933,18.049477 C -70.898142,18.045354 -70.919474,18.021769 -70.92455,18.018227 C -70.940483,18.009359 -70.968974,17.990492 -70.98705,17.986977 C -70.999583,17.985842 -71.036043,17.985669 -71.04955,17.986977 C -71.056549,17.988249 -71.073553,17.985083 -71.0808,17.986977 z "
           style="fill:url(#linearGradient9040);fill-opacity:1;fill-rule:evenodd;stroke:none;stroke-width:1pt;stroke-linecap:butt;stroke-linejoin:miter;stroke-opacity:1" />
        <path
           sodipodi:nodetypes="csccssssssssc"
           id="path9177"
           d="M -68.0808,17.799477 C -68.085524,17.802265 -68.075935,17.827342 -68.0808,17.830727 C -69.115257,18.652858 -73.033393,31.647795 -74.378489,37.552734 L -70.784739,38.365234 C -69.420557,33.181241 -67.572049,19.654466 -67.8933,17.955727 C -67.89653,17.940821 -67.889657,17.905924 -67.8933,17.893227 C -67.895226,17.887437 -67.922519,17.867204 -67.92455,17.861977 C -67.926686,17.857318 -67.922308,17.834814 -67.92455,17.830727 C -67.927006,17.827797 -67.953236,17.801822 -67.9558,17.799477 C -67.958691,17.798914 -67.984049,17.799438 -67.98705,17.799477 C -67.991049,17.799209 -68.014154,17.799124 -68.0183,17.799477 C -68.022593,17.800445 -68.045112,17.797898 -68.04955,17.799477 C -68.054132,17.801663 -68.076076,17.796689 -68.0808,17.799477 z "
           style="fill:url(#linearGradient9042);fill-opacity:1;fill-rule:evenodd;stroke:none;stroke-width:1pt;stroke-linecap:butt;stroke-linejoin:miter;stroke-opacity:1" />
      </g>
      <g
         id="g101212"
         transform="translate(27.28031,250.17598)">
        <path
           id="path101133"
           d="M -92.59375,42.59375 C -94.968824,43.788507 -97.329611,44.991055 -99.6875,46.1875 C -94.04955,56.45076 -89.008659,66.170879 -84.4375,75.53125 L -76.25,77.53125 C -76.94116,76.117544 -77.638812,74.686384 -78.34375,73.21875 C -82.976018,63.654054 -87.651891,53.60299 -92.59375,42.59375 z "
           style="fill:#7f4008;fill-rule:evenodd" />
        <path
           id="path101135"
           d="M -96.3125,47.71875 C -96.314319,47.721081 -96.310983,47.74714 -96.3125,47.75 C -96.313402,47.753938 -96.343161,47.776765 -96.34375,47.78125 C -96.344021,47.786288 -96.3438,47.806903 -96.34375,47.8125 C -96.342999,47.824825 -96.314575,47.860379 -96.3125,47.875 C -96.271253,48.111789 -96.08729,48.625419 -95.6875,49.46875 C -93.964128,53.177894 -87.937319,63.412999 -83.53125,72.84375 C -83.00522,73.982548 -82.445876,75.225005 -81.875,76.53125 L -79.875,77.03125 C -81.98253,73.027224 -83.96801,69.444959 -85.78125,65.96875 C -88.893561,60.132412 -91.986396,54.050292 -93.6875,51.21875 C -94.680336,49.583265 -95.843294,47.989323 -96.21875,47.75 C -96.227986,47.744714 -96.241821,47.722141 -96.25,47.71875 C -96.25382,47.717537 -96.277704,47.719474 -96.28125,47.71875 C -96.28395,47.719527 -96.31009,47.717461 -96.3125,47.71875 z "
           style="fill:#ffffc7;fill-rule:evenodd" />
        <path
           style="fill:#483622;fill-rule:evenodd"
           id="path101137"
           i:knockout="Off"
           d="M -91.505889,46.52957 C -89.879698,49.474116 -84.762135,61.682894 -84.475036,63.210263 C -84.187938,64.737631 -88.333267,58.507707 -89.911581,55.60024 C -91.547719,52.680476 -93.786479,47.579507 -94.076811,45.975906 C -94.333545,44.501676 -93.112094,43.662448 -91.505889,46.52957 z "
           clip-rule="evenodd" />
        <path
           style="fill:#616161;fill-rule:evenodd"
           id="path101141"
           i:knockout="Off"
           d="M -73.945599,33.28062 C -76.889045,35.016334 -79.317565,36.367482 -81.332911,37.36074 C -83.34026,38.36322 -84.867889,39.01254 -85.947105,39.2721 C -86.803564,38.41143 -87.614914,37.857043 -88.312749,37.613802 C -89.021211,37.395061 -89.647997,37.45176 -90.198301,37.850414 C -90.094849,39.474171 -90.465535,40.895611 -91.252661,42.253771 C -92.075492,43.643769 -93.383578,45.234527 -95.010331,45.968939 C -96.657409,46.752419 -99.262778,46.811577 -100.91093,46.669385 C -102.55293,46.552419 -103.72015,44.9709 -104.77647,45.148601 C -105.83561,45.359309 -106.65317,46.319857 -107.22438,47.963235 C -108.53219,48.829765 -110.17836,49.251771 -112.29811,49.345218 C -114.42684,49.446447 -118.39264,49.332653 -119.82766,48.439271 C -121.25469,47.55511 -121.71464,46.209085 -120.75925,44.13864 C -119.76636,42.129558 -115.76379,37.699835 -113.98846,36.411695 C -112.20871,35.183034 -111.34675,37.028855 -110.27689,36.667371 C -109.25989,36.335571 -108.44646,35.551523 -107.87271,34.346101 C -108.46486,33.083285 -108.09235,31.754581 -106.71994,30.328118 C -105.32256,28.912316 -101.70209,26.416533 -99.674987,25.853234 C -97.67721,25.347248 -96.058276,25.78202 -94.786876,27.194151 C -93.499152,27.083881 -92.67183,26.696503 -92.335819,25.996377 C -92.017752,25.311813 -92.128532,24.386526 -92.762395,23.111857 L -81.522978,17.310578 C -78.351712,19.24527 -76.21765,21.434091 -74.910091,24.120493 C -73.662378,26.809891 -73.304561,29.832641 -73.945599,33.28062 z "
           clip-rule="evenodd" />
        <path
           style="fill:#a1a1a1;fill-rule:evenodd"
           id="path101143"
           i:knockout="Off"
           d="M -91.322275,30.91717 C -90.933149,31.601497 -90.614392,32.331567 -90.366402,33.106418 C -90.113079,33.924677 -90.234946,35.523763 -89.788573,35.639684 C -89.362993,35.804639 -88.426407,34.002024 -87.797056,33.912533 C -87.177587,33.846895 -86.575426,34.25171 -86.025283,35.157953 C -84.769579,34.665861 -83.27145,33.964398 -81.392758,32.995334 C -79.523764,32.050836 -77.41296,30.895755 -74.920695,29.473603 C -75.070256,28.376717 -75.167653,27.61187 -75.365056,27.076107 C -75.532017,26.57595 -75.734105,26.342929 -75.940845,26.412185 L -85.267519,31.482546 C -86.028304,30.460304 -86.855942,29.904759 -87.884239,29.806633 C -88.898133,29.742738 -90.042568,30.090735 -91.322275,30.91717 z "
           clip-rule="evenodd" />
        <path
           style="fill:#a1a1a1;fill-rule:evenodd"
           id="path101145"
           i:knockout="Off"
           d="M -107.7587,44.936356 C -108.32678,45.822033 -111.58119,47.543591 -113.56684,47.882297 C -115.57141,48.253567 -118.84867,47.809878 -119.60517,47.082596 C -120.31119,46.359137 -118.84466,44.207401 -117.8672,43.721252 C -116.90466,43.326649 -115.09952,44.809932 -113.82378,44.63146 C -112.54189,44.478214 -111.37459,42.742747 -110.33212,42.766579 C -109.30122,42.831448 -107.23687,44.106087 -107.7587,44.936356 z "
           clip-rule="evenodd" />
        <path
           style="fill:#212121;fill-rule:evenodd"
           id="path101147"
           i:knockout="Off"
           d="M -91.585724,29.290691 C -90.888159,28.481803 -90.046852,28.019416 -89.000088,27.976203 C -87.945293,27.941746 -86.747006,28.254007 -85.34233,28.985509 L -76.553971,24.382004 C -77.091897,23.182206 -77.717991,22.278515 -78.463474,21.636438 C -79.194077,21.012022 -79.672673,20.405289 -80.998451,20.580437 C -82.347186,20.838375 -84.934523,22.186652 -86.402719,22.940755 C -87.845949,23.70552 -88.922875,24.403251 -89.668519,25.066071 C -90.613815,26.168842 -91.445436,26.968668 -92.198737,27.495775 C -92.935795,28.041108 -93.574956,28.265304 -94.120019,28.234973 C -95.180994,26.938592 -96.444455,26.352298 -97.976201,26.47071 C -99.535793,26.612399 -101.87239,28.104782 -103.255,28.957576 C -104.62421,29.862069 -106.08558,31.34909 -106.05394,31.621207 C -105.99205,31.928215 -104.13377,31.134493 -102.88384,30.72688 C -101.64472,30.343053 -100.14752,29.296121 -98.547664,29.291995 C -96.93441,29.339567 -94.346216,30.946337 -93.190904,30.919026 C -92.012498,30.918847 -91.512872,30.407381 -91.585724,29.290691 z "
           clip-rule="evenodd" />
        <path
           style="fill:#212121;fill-rule:evenodd"
           id="path101149"
           i:knockout="Off"
           d="M -116.99864,42.040082 C -116.98872,41.308355 -114.79441,38.745093 -113.76877,38.532003 C -112.74834,38.385426 -110.9534,40.255714 -110.95436,40.97966 C -111.00914,41.750291 -112.78812,42.852959 -113.8345,43.005877 C -114.84975,43.194683 -117.00317,42.814286 -116.99864,42.040082 z "
           clip-rule="evenodd" />
      </g>
      <g
         id="g102594"
         transform="translate(63.12981,319.32601)">
        <path
           id="path5"
           d="M -34.53125,-75.8125 C -34.814136,-75.801983 -35.106647,-75.758962 -35.4375,-75.6875 C -39.153309,-74.885137 -41.392357,-67.00964 -42.8125,-64.125 C -45.04977,-59.581604 -48.109623,-54.582478 -49.75,-50.09375 C -51.264776,-50.982038 -54.568731,-52.979904 -56.53125,-52.09375 C -57.819973,-51.511819 -57.933434,-50.583798 -58.09375,-49.375 C -58.178054,-48.740038 -57.410604,-47.880009 -57.5,-47.34375 C -57.50309,-47.328318 -57.526646,-47.296102 -57.53125,-47.28125 C -57.532959,-47.276366 -57.529363,-47.254817 -57.53125,-47.25 C -57.537453,-47.235755 -57.554615,-47.20111 -57.5625,-47.1875 C -57.568143,-47.178572 -57.587316,-47.164882 -57.59375,-47.15625 C -57.607428,-47.139289 -57.639209,-47.109459 -57.65625,-47.09375 C -57.665207,-47.086057 -57.677653,-47.069864 -57.6875,-47.0625 C -57.692651,-47.058902 -57.713369,-47.034763 -57.71875,-47.03125 C -57.724365,-47.027823 -57.744149,-47.034591 -57.75,-47.03125 C -58.44474,-46.634747 -59.553697,-46.250966 -60.0625,-45.5625 C -60.651498,-44.765986 -60.76875,-44.181635 -60.75,-43.1875 C -60.721987,-41.685081 -60.368382,-41.062618 -60.34375,-40.59375 C -60.343307,-40.57878 -60.343457,-40.545947 -60.34375,-40.53125 C -60.344428,-40.516671 -60.342269,-40.483129 -60.34375,-40.46875 C -60.346598,-40.447304 -60.370171,-40.396188 -60.375,-40.375 C -60.378682,-40.360907 -60.37036,-40.326563 -60.375,-40.3125 C -60.380136,-40.298434 -60.400089,-40.26411 -60.40625,-40.25 C -60.41294,-40.23585 -60.429719,-40.201766 -60.4375,-40.1875 C -60.629404,-39.857621 -61.124593,-39.46312 -62.1875,-38.75 C -62.778507,-38.353345 -63.201089,-37.195326 -63.0625,-36.5 C -62.872553,-35.548478 -62.51264,-34.632109 -62.1875,-33.71875 C -62.179387,-33.695949 -62.161864,-33.678158 -62.15625,-33.65625 C -62.148247,-33.62022 -62.126503,-33.564961 -62.125,-33.53125 C -62.124898,-33.517943 -62.124126,-33.481709 -62.125,-33.46875 C -62.125676,-33.462356 -62.155339,-33.443811 -62.15625,-33.4375 C -62.158536,-33.425043 -62.153059,-33.387135 -62.15625,-33.375 C -62.158067,-33.369011 -62.154216,-33.349662 -62.15625,-33.34375 C -62.158499,-33.337914 -62.185041,-33.318261 -62.1875,-33.3125 C -62.198165,-33.28975 -62.204914,-33.240378 -62.21875,-33.21875 C -62.222398,-33.21341 -62.246166,-33.192774 -62.25,-33.1875 C -62.254016,-33.18229 -62.277055,-33.161397 -62.28125,-33.15625 C -62.705186,-32.662979 -63.930387,-32.44529 -64.375,-31.9375 C -65.063365,-31.151139 -65.388482,-30.601238 -65.375,-29.53125 C -65.363368,-28.650112 -64.767666,-27.570309 -64.5,-26.75 C -64.497531,-26.74244 -64.470953,-26.726209 -64.46875,-26.71875 C -64.464871,-26.704029 -64.471598,-26.670583 -64.46875,-26.65625 C -64.466408,-26.642107 -64.4701,-26.60752 -64.46875,-26.59375 C -64.467886,-26.580163 -64.437412,-26.54448 -64.4375,-26.53125 C -64.438054,-26.518195 -64.467284,-26.481463 -64.46875,-26.46875 C -64.469706,-26.462477 -64.467574,-26.443691 -64.46875,-26.4375 C -64.471535,-26.425281 -64.465119,-26.386903 -64.46875,-26.375 C -64.470772,-26.369126 -64.497775,-26.349548 -64.5,-26.34375 C -64.502425,-26.338027 -64.497379,-26.31815 -64.5,-26.3125 C -64.502815,-26.306922 -64.528245,-26.286757 -64.53125,-26.28125 C -64.540823,-26.264937 -64.551307,-26.23446 -64.5625,-26.21875 C -64.566404,-26.213578 -64.589676,-26.192609 -64.59375,-26.1875 C -65.00511,-25.697944 -66.206907,-25.495801 -66.65625,-25 C -67.193561,-24.407094 -67.699076,-23.788993 -67.6875,-22.9375 C -67.681158,-22.486235 -67.555212,-22.015678 -67.40625,-21.59375 C -67.086848,-20.691541 -66.921821,-20.201137 -66.90625,-19.90625 C -66.905815,-19.891623 -66.905962,-19.857433 -66.90625,-19.84375 C -66.906896,-19.830516 -66.904892,-19.793631 -66.90625,-19.78125 C -66.907106,-19.775262 -66.905219,-19.755794 -66.90625,-19.75 C -66.907456,-19.744393 -66.93612,-19.724178 -66.9375,-19.71875 C -66.939053,-19.713493 -66.935775,-19.692593 -66.9375,-19.6875 C -66.939397,-19.682564 -66.935433,-19.661038 -66.9375,-19.65625 C -66.939736,-19.651604 -66.966345,-19.629513 -66.96875,-19.625 C -66.971323,-19.620613 -66.966011,-19.598018 -66.96875,-19.59375 C -66.974561,-19.585435 -66.993531,-19.570418 -67,-19.5625 C -67.22765,-19.303161 -67.831767,-19.24156 -68.65625,-18.21875 C -69.260459,-17.46944 -69.715903,-17.178428 -69.9375,-16.15625 C -70.035348,-15.704598 -69.824016,-15.10574 -69.6875,-14.6875 C -69.357144,-13.675782 -69.206651,-13.170402 -69.21875,-12.875 C -69.219191,-12.868492 -69.218143,-12.85006 -69.21875,-12.84375 C -69.220294,-12.831513 -69.216548,-12.792767 -69.21875,-12.78125 C -69.220015,-12.775661 -69.248572,-12.755427 -69.25,-12.75 C -69.251591,-12.744727 -69.248246,-12.723875 -69.25,-12.71875 C -69.251916,-12.713764 -69.247923,-12.692353 -69.25,-12.6875 C -69.254476,-12.678045 -69.276133,-12.665248 -69.28125,-12.65625 C -69.289404,-12.643064 -69.302918,-12.606136 -69.3125,-12.59375 C -69.530351,-12.330201 -70.088557,-12.218178 -70.90625,-11.25 C -71.487273,-10.562176 -71.970387,-10.320459 -72.21875,-9.34375 C -72.853066,-6.8522416 -69.954213,-6.2030831 -72.9375,-4.5 C -76.120989,-2.6822371 -72.472369,0.87603795 -74.53125,2.0625 C -78.120132,4.13045 -74.820539,7.78136 -76.8125,9 C -79.291454,10.51694 -78.414201,13.040652 -78.5,14.65625 L -64.9375,17.71875 L -32.53125,8.5625 C -31.73305,7.2479634 -30.923199,5.9395336 -30.125,4.625 C -28.401505,1.7866858 -26.692244,-1.0366858 -24.96875,-3.875 C -24.96461,-3.8818271 -24.944371,-3.8994007 -24.9375,-3.90625 C -24.933411,-3.9096809 -24.910972,-3.9340625 -24.90625,-3.9375 C -24.890243,-3.9478338 -24.864923,-3.9583443 -24.84375,-3.96875 C -24.426172,-4.1600088 -23.203933,-4.3693309 -22.84375,-4.625 C -20.593065,-6.2217257 -18.631407,-9.1215825 -16.71875,-11.125 C -14.452011,-13.499399 -13.406016,-15.507536 -13.40625,-17.75 C -13.432012,-17.51635 -13.460483,-17.267834 -13.46875,-17.03125 C -14.28724,-18.602351 -15.248292,-19.682619 -15.65625,-20.78125 C -15.693324,-19.534794 -15.642739,-18.306823 -15.90625,-17.09375 C -16.747053,-13.222474 -21.4051,-10.094158 -24,-7.34375 C -25.35574,-5.9066069 -28.724455,-9.5582135 -30.09375,-10.53125 C -33.262188,-12.783402 -32.694741,-12.822797 -33.15625,-16.40625 C -33.827223,-21.61756 -36.335345,-25.964677 -40.46875,-29.25 C -44.647914,-32.57153 -47.365146,-36.225425 -48.3125,-41.5625 C -49.174394,-46.418817 -46.799325,-50.226242 -44.71875,-54.375 C -42.093703,-59.610044 -39.101106,-64.819927 -36.875,-70.21875 C -36.425663,-71.308868 -35.439307,-72.81061 -34.59375,-72.90625 C -34.131252,-72.939867 -33.695811,-72.526281 -33.40625,-71.40625 C -32.86013,-69.293041 -33.194804,-67.201575 -32.34375,-65.15625 C -31.031002,-62.001339 -25.892171,-60.179361 -23.3125,-58.15625 C -19.160726,-54.899718 -16.008756,-51.053296 -12.625,-47.0625 C -10.531391,-44.592963 -7.096496,-42.286532 -3.90625,-44.59375 C -6.040372,-45.181367 -9.1466357,-44.102737 -10.75,-46.40625 C -8.9325442,-46.028922 -7.464005,-46.266592 -5.65625,-46.5625 C -2.4891542,-47.081297 -1.422281,-47.016746 -1.9375,-43.1875 C -2.5936791,-38.310294 -5.090366,-34.398774 -8.84375,-31.28125 C -10.683444,-29.753227 -13.882853,-25.836214 -15.1875,-23.78125 C -15.949742,-22.580382 -15.996577,-21.680029 -15.6875,-20.8125 C -15.658737,-21.750854 -15.549919,-22.711065 -15.21875,-23.65625 C -14.076325,-21.463545 -13.449934,-19.628736 -13.40625,-17.9375 C -12.466028,-25.088267 -3.6249809,-30.894776 -0.8125,-37.15625 C 1.561417,-42.441621 2.318731,-50.24167 -5.125,-49.375 C -6.8765449,-49.171028 -8.9899617,-48.32789 -10.53125,-49.125 C -12.795635,-50.296137 -15.062492,-54.353203 -17.15625,-56.3125 C -20.457857,-59.402302 -23.99883,-62.052868 -27.8125,-64.46875 C -27.822594,-64.47323 -27.837188,-64.497203 -27.84375,-64.5 C -31.842074,-66.339374 -29.321791,-76.006177 -34.53125,-75.8125 z "
           style="overflow:visible" />
        <path
           style="fill:#723800;fill-opacity:1;overflow:visible"
           id="path7"
           d="M -9.2670977,-31.03599 C -6.5484297,-32.902126 -4.2919877,-35.776681 -3.0376037,-38.817092 C -2.3376537,-40.514044 -0.49556166,-45.88505 -2.6817857,-47.006849 C -4.2413607,-47.806929 -8.7420127,-46.001749 -10.756207,-46.41998 C -9.1528427,-44.116467 -6.0327107,-45.186605 -3.8985887,-44.598989 C -6.7349827,-42.547801 -10.357472,-44.241352 -12.280939,-46.656866 C -15.395964,-50.568155 -18.537231,-54.258118 -22.435428,-57.426478 C -25.287084,-59.744274 -29.896405,-61.436783 -31.937201,-64.384244 C -33.136345,-66.11626 -32.933544,-68.381844 -33.228531,-70.343099 C -33.588534,-72.740083 -35.202668,-74.104019 -36.398517,-71.203227 C -38.261851,-66.68482 -40.714825,-62.331989 -42.911811,-57.949948 C -45.056289,-53.673652 -48.402223,-48.970416 -48.500436,-44.024245 C -48.603344,-38.845936 -46.104294,-34.190671 -42.372315,-30.783328 C -38.654671,-27.389124 -34.511443,-24.184276 -33.544627,-18.87747 C -33.370831,-17.922961 -33.512016,-12.967782 -32.963364,-12.577794 C -30.222643,-10.629881 -27.482455,-8.6824269 -24.741734,-6.7345124 C -24.574676,-6.6157783 -16.585923,-14.32579 -16.144722,-16.052852 C -15.672169,-17.902085 -15.540884,-20.625571 -15.56206,-22.55412 C -15.588227,-24.975763 -16.919575,-26.834541 -18.160282,-29.167208 C -18.702477,-30.186683 -21.551193,-29.193682 -22.923926,-29.869276 C -26.447168,-31.603785 -27.80864,-36.81492 -30.846743,-39.486545 C -33.79718,-42.081078 -39.402466,-41.976659 -40.093642,-46.571851 C -40.705536,-50.642119 -37.323951,-53.50331 -33.450971,-52.979689 C -25.842038,-51.951144 -17.146096,-43.253385 -15.21812,-36.007085 C -16.72897,-42.733647 -26.014,-55.683716 -34.215381,-54.246358 C -29.233744,-57.670689 -19.475458,-47.417248 -17.28608,-43.761919 C -14.402354,-38.946834 -11.675129,-32.752325 -18.501203,-29.808686 C -17.408826,-27.754642 -16.316331,-25.700308 -15.224246,-23.646143 C -14.007851,-26.808181 -11.67259,-28.907303 -9.2670977,-31.03599" />
        <path
           id="path9"
           d="M -15.217298,-36.006748 C -15.193126,-35.806047 -15.175321,-35.613278 -15.127733,-35.41039 C -15.175321,-35.613278 -15.193126,-35.806047 -15.217298,-36.006748"
           style="overflow:visible" />
        <path
           sodipodi:nodetypes="cccsscssccc"
           id="path11"
           d="M -15.447867,-31.822924 C -6.4562567,-37.872699 -27.351971,-58.963175 -34.214438,-54.245733 C -26.127503,-55.663088 -15.920978,-42.338354 -15.127612,-35.410099 C -16.079148,-42.25378 -31.902194,-59.411318 -38.85797,-51.125106 C -44.470541,-44.438939 -34.127471,-42.371638 -30.846209,-39.486081 C -26.94611,-36.056621 -25.048692,-27.533086 -18.500549,-29.807935 C -18.828097,-31.399957 -22.37247,-30.615048 -23.844532,-32.179287 C -26.350049,-34.8413 -27.304273,-38.494262 -30.409861,-40.89124 C -33.143822,-43.001571 -41.49961,-44.33831 -38.268062,-49.707388 C -32.535677,-59.232309 -10.11599,-35.478108 -20.245318,-30.971752 C -19.776032,-28.79076 -17.806139,-29.77885 -17.018076,-30.832121"
           style="overflow:visible" />
        <path
           id="path13"
           d="M -30.448122,-59.854026 C -29.945909,-59.646949 -29.945909,-59.646949 -30.448122,-59.854026"
           style="overflow:visible" />
        <path
           id="path15"
           d="M -29.643481,-59.633988 C -29.336843,-59.425673 -29.700915,-59.672847 -29.643481,-59.633988"
           style="overflow:visible" />
        <path
           id="path21"
           d="M -27.300702,-64.095106 C -27.454324,-64.155321 -27.454324,-64.155321 -27.300702,-64.095106"
           style="overflow:visible" />
        <path
           id="path23"
           d="M -26.732848,-63.300817 C -26.886538,-63.36202 -26.886538,-63.36202 -26.732848,-63.300817"
           style="overflow:visible" />
        <path
           id="path25"
           d="M -26.997085,-63.745715 C -27.127623,-63.756191 -27.127623,-63.756191 -26.997085,-63.745715"
           style="overflow:visible" />
        <path
           id="path27"
           d="M -25.03779,-8.3918151 C -27.511309,-10.459777 -30.460959,-11.988599 -31.105881,-14.977717 C -31.764167,-18.028456 -31.53162,-20.651187 -33.099053,-23.575652 C -35.948482,-28.892673 -41.877021,-31.382959 -44.650027,-36.674492 C -47.696824,-42.488791 -46.124923,-47.113399 -43.617114,-52.51792 C -40.985096,-58.188623 -38.11317,-63.834334 -35.19785,-69.365105 C -34.780468,-65.881964 -33.509293,-62.252442 -29.760553,-61.248798 C -34.591408,-64.190032 -32.877574,-67.677725 -34.729487,-71.857121 C -37.466802,-68.409746 -39.066872,-63.220943 -41.076372,-59.243961 C -44.069025,-53.321233 -48.237172,-47.560751 -47.077708,-40.713202 C -45.799022,-33.157867 -38.735672,-30.856375 -35.028724,-24.936524 C -33.126607,-21.898623 -32.094679,-18.754746 -32.045009,-15.155437 C -31.99918,-11.830079 -27.583188,-9.9227641 -25.03779,-8.3918151"
           style="overflow:visible" />
        <path
           style="fill:#723800;fill-opacity:1;overflow:visible"
           sodipodi:nodetypes="cssccccsscc"
           id="path31"
           d="M -13.47382,-46.477322 C -12.125928,-44.377165 -9.8728717,-42.717745 -7.1458227,-42.692636 C -6.0203157,-42.6825 -2.3846057,-43.026616 -2.8574557,-44.953085 C -3.2441827,-46.528326 -8.4049977,-45.846651 -9.8781877,-46.784984 C -9.8130627,-45.785937 -9.9527167,-45.579826 -10.824086,-45.440622 C -7.9849047,-44.408406 -5.5198387,-45.876757 -2.7890937,-45.931284 C -2.8205207,-45.899449 -3.0250697,-46.171393 -3.0367557,-46.145384 C -1.5657097,-39.447276 -7.0390757,-34.588611 -11.393591,-30.62587 C -14.243205,-28.032744 -16.349868,-25.016239 -16.872815,-21.13672 C -17.112509,-19.358119 -16.379724,-16.9512 -17.691252,-15.488121 C -15.884505,-25.725503 -13.041983,-33.314425 -11.647735,-43.621952" />
        <path
           style="fill:#ffffff;overflow:visible"
           id="path33"
           d="M -16.881767,-14.87451 C -16.835372,-14.855621 -16.838373,-14.8571 -16.881767,-14.87451" />
        <path
           id="path35"
           d="M -21.494464,-17.392255 C -23.317912,-23.729225 -33.180566,-16.914942 -27.415573,-13.3441 C -28.631834,-14.494373 -28.931185,-16.348101 -27.992777,-17.77767 C -30.264518,-12.477863 -20.122819,-11.384625 -21.494464,-17.392255"
           style="overflow:visible" />
        <path
           id="path37"
           d="M -31.119693,-31.766411 C -33.992444,-31.053279 -36.506408,-27.242879 -32.917593,-25.235217 C -34.192405,-26.361468 -34.446085,-28.198048 -33.562892,-29.641475 C -34.605262,-26.593113 -31.050149,-23.460025 -28.298383,-25.652313 C -25.290395,-28.048405 -27.848752,-32.370027 -31.119693,-31.766411"
           style="overflow:visible" />
        <path
           id="path39"
           d="M -40.269692,-41.189864 C -43.372369,-40.460521 -45.309198,-36.759654 -42.039941,-34.591396 C -43.235131,-35.795118 -43.561697,-37.608526 -42.645327,-39.092695 C -43.875669,-36.085475 -40.132162,-32.935637 -37.448551,-35.075351 C -34.525267,-37.40619 -36.771809,-41.852104 -40.269692,-41.189864"
           style="overflow:visible" />
        <path
           style="fill:#bfbfbf;overflow:visible"
           id="path41"
           d="M -38.843356,-35.286835 C -42.181176,-34.41941 -43.420005,-39.569377 -40.095528,-40.391012 C -36.690176,-41.233007 -35.580204,-35.912445 -38.843356,-35.286835" />
        <path
           id="path43"
           d="M -38.691049,-36.063295 C -40.518035,-35.567729 -41.855151,-37.323167 -41.339424,-39.001436 C -42.976376,-36.92142 -38.900131,-34.083267 -37.531899,-36.704188 C -37.858579,-36.394334 -38.574058,-36.132093 -38.691049,-36.063295"
           style="overflow:visible" />
        <path
           id="path45"
           d="M -37.632512,-38.088483 C -38.392033,-38.559884 -40.086696,-37.882359 -41.306784,-37.589532 C -41.273334,-37.445218 -41.239472,-37.300729 -41.206023,-37.156415 C -40.014482,-37.467031 -38.823643,-37.777701 -37.632512,-38.088483"
           style="overflow:visible" />
        <path
           style="fill:#bfbfbf;overflow:visible"
           id="path47"
           d="M -29.69372,-25.864258 C -33.010801,-24.862569 -34.345407,-30.186169 -30.945943,-30.967735 C -27.421973,-31.777913 -26.640588,-26.264361 -29.69372,-25.864258" />
        <path
           id="path49"
           d="M -29.608904,-26.611951 C -31.462298,-26.195424 -32.884686,-28.01155 -32.150699,-29.674237 C -33.816679,-27.070608 -29.753504,-24.649889 -28.370826,-27.444263 C -28.719034,-26.893556 -29.142422,-26.884147 -29.608904,-26.611951"
           style="overflow:visible" />
        <path
           id="path51"
           d="M -29.331404,-30.133915 C -30.208842,-29.718341 -30.672006,-28.099797 -31.18959,-26.984128 C -31.084651,-26.922073 -30.979834,-26.860312 -30.874727,-26.79867 C -30.360245,-27.910322 -29.845885,-29.022262 -29.331404,-30.133915"
           style="overflow:visible" />
        <path
           style="fill:#bfbfbf;overflow:visible"
           id="path53"
           d="M -24.191048,-13.97239 C -27.544059,-13.14229 -28.782226,-18.307882 -25.471983,-19.144057 C -22.08045,-20.000416 -20.929423,-14.641012 -24.191048,-13.97239" />
        <path
           id="path55"
           d="M -24.03874,-14.748848 C -25.867899,-14.266698 -27.228428,-16.032514 -26.687236,-17.687278 C -28.305428,-15.785924 -24.321606,-12.497016 -22.867571,-15.552638 C -23.208103,-15.098225 -23.824693,-14.885996 -24.03874,-14.748848"
           style="overflow:visible" />
        <path
           id="path57"
           d="M -23.532361,-15.434938 C -23.757641,-16.306641 -25.380461,-16.994807 -26.428958,-17.636171 C -26.491011,-17.531233 -26.552944,-17.426003 -26.614707,-17.321187 C -25.587201,-16.692575 -24.559695,-16.063962 -23.532361,-15.434938"
           style="overflow:visible" />
        <path
           id="path59"
           d="M -55.53125,-49.65625 C -54.115605,-45.625432 -54.220091,-46.008315 -57.90625,-43.875 C -57.914573,-43.870183 -57.93009,-43.849845 -57.9375,-43.84375 C -57.944463,-43.837031 -57.962665,-43.82044 -57.96875,-43.8125 C -57.977233,-43.799696 -57.993399,-43.765399 -58,-43.75 C -58.001997,-43.744588 -57.998203,-43.724436 -58,-43.71875 C -58.001599,-43.712795 -58.029845,-43.693719 -58.03125,-43.6875 C -58.033676,-43.674542 -58.029573,-43.638967 -58.03125,-43.625 C -58.032561,-43.610542 -58.030653,-43.577909 -58.03125,-43.5625 C -58.044669,-42.705464 -57.040509,-40.499418 -56.875,-40 C -56.758307,-39.647659 -56.786397,-39.343784 -56.875,-39.09375 C -56.891916,-39.049636 -56.915339,-38.979059 -56.9375,-38.9375 C -56.951399,-38.912857 -56.984346,-38.867546 -57,-38.84375 C -57.01622,-38.820226 -57.044632,-38.772735 -57.0625,-38.75 C -57.074766,-38.735012 -57.112043,-38.70216 -57.125,-38.6875 C -57.670007,-38.092974 -58.779253,-37.76074 -59.625,-37.25 C -61.913846,-35.867928 -57.230836,-33.087293 -60.34375,-31.21875 C -61.190483,-30.710399 -62.05154,-30.485336 -62.375,-29.96875 C -62.382324,-29.956422 -62.399509,-29.918937 -62.40625,-29.90625 C -62.412695,-29.893377 -62.431658,-29.857006 -62.4375,-29.84375 C -62.440268,-29.837024 -62.434887,-29.819327 -62.4375,-29.8125 C -62.44487,-29.791711 -62.462818,-29.740499 -62.46875,-29.71875 C -62.472379,-29.704029 -62.497033,-29.671425 -62.5,-29.65625 C -62.503946,-29.633137 -62.497595,-29.586698 -62.5,-29.5625 C -62.503135,-29.521547 -62.501353,-29.450466 -62.5,-29.40625 C -62.492263,-29.253595 -62.471581,-29.072284 -62.40625,-28.875 C -62.036421,-27.758454 -61.01635,-26.222254 -61.40625,-25.25 C -61.430321,-25.19452 -61.46601,-25.1141 -61.5,-25.0625 C -61.595255,-24.92672 -61.72919,-24.790502 -61.90625,-24.6875 C -62.37311,-24.415756 -64.439066,-23.53356 -64.84375,-22.90625 C -64.847126,-22.90064 -64.871899,-22.880568 -64.875,-22.875 C -64.877822,-22.869476 -64.872462,-22.84923 -64.875,-22.84375 C -64.877249,-22.838316 -64.904294,-22.817886 -64.90625,-22.8125 C -64.907907,-22.807162 -64.904896,-22.786538 -64.90625,-22.78125 C -64.907297,-22.776013 -64.905516,-22.755185 -64.90625,-22.75 C -64.906667,-22.744869 -64.906155,-22.723826 -64.90625,-22.71875 C -64.906018,-22.71373 -64.906813,-22.692463 -64.90625,-22.6875 C -64.905351,-22.682596 -64.90749,-22.661094 -64.90625,-22.65625 C -64.657402,-21.905378 -63.391514,-19.459067 -63.40625,-18.46875 C -63.407193,-18.443993 -63.403559,-18.39778 -63.40625,-18.375 C -63.411734,-18.33817 -63.426804,-18.280854 -63.4375,-18.25 C -63.451447,-18.214943 -63.476233,-18.161127 -63.5,-18.125 C -63.50422,-18.118952 -63.526776,-18.099824 -63.53125,-18.09375 C -64.093502,-17.367909 -66.421384,-16.435301 -67.09375,-16.03125 C -67.097753,-16.028305 -67.121256,-16.034573 -67.125,-16.03125 C -67.135466,-16.020163 -67.148024,-15.983087 -67.15625,-15.96875 C -67.16375,-15.953364 -67.182118,-15.924681 -67.1875,-15.90625 C -67.190631,-15.893309 -67.185263,-15.857964 -67.1875,-15.84375 C -67.1902,-15.821499 -67.217956,-15.774937 -67.21875,-15.75 C -67.225331,-14.804093 -65.985586,-12.118818 -65.78125,-11.53125 C -65.779942,-11.526406 -65.782211,-11.504911 -65.78125,-11.5 C -65.780631,-11.495022 -65.781533,-11.473793 -65.78125,-11.46875 C -65.781299,-11.463643 -65.780873,-11.44267 -65.78125,-11.4375 C -65.781949,-11.432269 -65.780233,-11.411541 -65.78125,-11.40625 C -65.78258,-11.400901 -65.779613,-11.380406 -65.78125,-11.375 C -65.787072,-11.358615 -65.804036,-11.329361 -65.8125,-11.3125 C -65.815605,-11.306829 -65.840366,-11.286969 -65.84375,-11.28125 C -65.851067,-11.269716 -65.866614,-11.230465 -65.875,-11.21875 C -66.355892,-10.581447 -68.327269,-9.6788817 -68.78125,-9.40625 C -68.85269,-9.3633387 -68.942073,-9.3264037 -69,-9.28125 C -69.064086,-9.2292859 -69.139545,-9.1485361 -69.1875,-9.09375 C -69.216275,-9.0592926 -69.258253,-9.0042729 -69.28125,-8.96875 C -69.290004,-8.9544568 -69.304621,-8.9207102 -69.3125,-8.90625 C -69.319951,-8.8917069 -69.33714,-8.8584576 -69.34375,-8.84375 C -69.353047,-8.821566 -69.367506,-8.7725481 -69.375,-8.75 C -69.38191,-8.7273317 -69.401043,-8.6792754 -69.40625,-8.65625 C -69.547481,-7.9542384 -68.940568,-7.077432 -68.625,-6.125 C -67.374389,-2.349828 -72.567344,-3.9837199 -71.375,-0.5625 C -71.217708,-0.11189996 -70.327175,1.7967327 -70.375,2.53125 C -70.376205,2.5443342 -70.373123,2.5814761 -70.375,2.59375 C -70.37611,2.5996784 -70.373715,2.6192842 -70.375,2.625 C -70.376462,2.6304991 -70.373358,2.6509715 -70.375,2.65625 C -70.376825,2.6613039 -70.40424,2.6826747 -70.40625,2.6875 C -70.408448,2.6920926 -70.403861,2.714394 -70.40625,2.71875 C -70.411414,2.7269806 -70.431547,2.7427561 -70.4375,2.75 C -70.440882,2.7531125 -70.465162,2.7783982 -70.46875,2.78125 C -70.472548,2.7838371 -70.495991,2.7789316 -70.5,2.78125 C -71.154244,3.1601024 -73.392831,4.0174764 -74.03125,4.71875 C -74.036513,4.7247749 -74.057481,4.7439964 -74.0625,4.75 C -74.06727,4.7559815 -74.089233,4.7752913 -74.09375,4.78125 C -74.102271,4.7931201 -74.117531,4.8319788 -74.125,4.84375 C -74.135395,4.8613291 -74.14835,4.8889175 -74.15625,4.90625 C -74.160997,4.9178803 -74.18362,4.9561073 -74.1875,4.96875 C -74.190956,4.9818871 -74.184876,5.0171479 -74.1875,5.03125 C -74.189717,5.0458228 -74.186081,5.0782596 -74.1875,5.09375 C -74.24875,6.042022 -72.968793,8.5576644 -72.71875,9.3125 C -72.717097,9.3174899 -72.688744,9.3386629 -72.6875,9.34375 C -72.686659,9.3489325 -72.687943,9.3697239 -72.6875,9.375 C -72.687449,9.380368 -72.687165,9.400792 -72.6875,9.40625 C -72.690363,9.4284351 -72.710023,9.4764742 -72.71875,9.5 C -72.741558,9.5536471 -72.794682,9.6281518 -72.84375,9.6875 C -73.458792,10.399659 -75.764871,11.471172 -76.28125,11.78125 C -76.284916,11.784362 -76.309063,11.80908 -76.3125,11.8125 C -76.31549,11.816522 -76.34098,11.839434 -76.34375,11.84375 C -76.346304,11.848355 -76.341409,11.87011 -76.34375,11.875 C -76.34588,11.880169 -76.373077,11.900805 -76.375,11.90625 C -76.376718,11.911965 -76.373483,11.93152 -76.375,11.9375 C -76.377637,11.949982 -76.373139,11.986503 -76.375,12 C -76.376482,12.01399 -76.374258,12.047552 -76.375,12.0625 C -76.395742,12.902487 -75.362377,15.123057 -75.1875,15.625 C -75.143205,15.752371 -75.112755,15.861033 -75.09375,15.96875 L -75.09375,16 L -64.5,18.375 L -43.375,12.40625 C -41.988267,10.125558 -40.605478,7.8432062 -39.21875,5.5625 C -36.540264,1.1574426 -33.866278,-3.2510715 -31.1875,-7.65625 C -30.86176,-8.1920938 -30.659918,-8.4757623 -30.625,-8.6875 C -30.612879,-8.8029247 -30.65064,-8.926694 -30.75,-9.03125 C -30.927188,-9.2056422 -31.282361,-9.4344037 -31.8125,-9.8125 C -34.949556,-12.049065 -34.576952,-12.61883 -35,-16.25 C -35.603895,-21.431245 -39.210238,-25.341179 -43.1875,-28.375 C -47.315982,-31.523916 -50.168053,-35.218113 -51.5,-40.28125 C -52.049041,-42.368702 -51.496992,-44.460305 -51.875,-46.4375 C -51.996114,-47.071298 -51.71847,-47.402771 -51.625,-47.65625 C -51.620006,-47.671335 -51.628465,-47.704147 -51.625,-47.71875 C -51.622394,-47.73315 -51.594451,-47.767183 -51.59375,-47.78125 C -51.594615,-47.816093 -51.608703,-47.872096 -51.625,-47.90625 C -51.69647,-48.029376 -51.914193,-48.179447 -52.3125,-48.34375 C -53.385799,-48.786553 -54.457662,-49.213578 -55.53125,-49.65625 z M -29.25,-8.0625 C -33.278032,-1.426496 -37.315654,5.2077192 -41.34375,11.84375 L -36.78125,10.5625 C -36.225403,9.6485771 -35.680853,8.7264296 -35.125,7.8125 C -32.838777,4.0538939 -30.567474,0.28985695 -28.28125,-3.46875 C -27.505465,-4.7437452 -27.080579,-5.3315123 -27.03125,-5.75 C -27.029232,-5.7737711 -27.030781,-5.8209653 -27.03125,-5.84375 C -27.032117,-5.8587497 -27.029274,-5.891587 -27.03125,-5.90625 C -27.038845,-5.9497996 -27.044871,-6.0206719 -27.0625,-6.0625 C -27.068936,-6.076398 -27.086194,-6.1111479 -27.09375,-6.125 C -27.114042,-6.1596273 -27.160176,-6.2148419 -27.1875,-6.25 C -27.486344,-6.6178828 -28.16886,-7.0573977 -29.25,-8.0625 z "
           style="fill:#dbd6ac;fill-opacity:1;overflow:visible" />
      </g>
      <g
         id="g107560"
         transform="translate(-94.46426,70.11753)">
        <path
           id="path1296"
           d="M 57.28125,212.9375 L 57.875,217.09375 C 60.449226,217.40415 60.738655,217.82194 61.3125,221.03125 C 62.070516,225.27055 60.895556,226.05449 56.65625,226.8125 C 52.416939,227.57051 52.070515,227.05181 51.3125,222.8125 C 50.753894,219.68842 50.247461,219.00616 52.375,217.8125 L 51.6875,213.9375 C 48.278555,215.76445 46.251311,219.64387 46.96875,223.65625 C 47.682281,227.64677 50.884085,230.56901 54.6875,231.125 C 54.448689,238.32882 53.061665,246.87732 53.53125,255.34375 C 53.599792,256.57953 53.680224,257.81894 53.75,259.03125 L 57.21875,259.84375 C 57.104719,258.41217 56.989188,256.96409 56.90625,255.46875 C 56.508685,248.30083 58.081464,240.83225 58.28125,234.34375 C 60.811147,240.0458 64.61219,246.13428 66.6875,252.59375 C 67.807618,256.08015 68.726361,259.42283 69.625,262.625 L 73.65625,263.53125 C 72.463355,259.59767 71.171961,255.51262 69.8125,251.28125 C 67.349447,243.61492 63.273752,236.44989 60.46875,230.0625 C 63.813797,228.21218 65.772494,224.40825 65.0625,220.4375 C 64.34506,216.42511 61.11251,213.46985 57.28125,212.9375 z "
           style="fill:#888888;fill-opacity:1;fill-rule:nonzero;stroke:#000000;stroke-width:0.73138267;stroke-linecap:square;stroke-linejoin:round;stroke-miterlimit:4;stroke-dashoffset:0;stroke-opacity:1" />
        <path
           style="fill:#888888;fill-opacity:1;fill-rule:nonzero;stroke:#000000;stroke-width:0.73138267;stroke-linecap:square;stroke-linejoin:round;stroke-miterlimit:4;stroke-dashoffset:0;stroke-opacity:1"
           id="path2825"
           d="M 58.246326,234.54339 C 56.067072,234.93305 53.982153,233.48063 53.592489,231.30138 C 53.202824,229.12212 54.655245,227.0372 56.834499,226.64754 C 59.013752,226.25787 61.098672,227.71029 61.488336,229.88955 C 61.878,232.0688 60.42558,234.15372 58.246326,234.54339 z " />
        <path
           id="path6661"
           d="M 63.40625,237.21875 C 63.703931,238.61929 62.913202,240.0433 62.125,240.625 C 64.031428,245.29509 66.801169,250.31698 68.4375,255.59375 C 69.175462,257.9735 69.82138,260.25384 70.4375,262.46875 L 73.03125,263.0625 C 72.211042,260.32369 71.33972,257.47194 70.4375,254.5625 C 68.495442,248.29982 65.522644,242.44964 63.40625,237.21875 z "
           style="fill:#a56161;fill-opacity:1;fill-rule:nonzero;stroke:none;stroke-width:7;stroke-linecap:square;stroke-linejoin:round;stroke-miterlimit:4;stroke-dashoffset:0;stroke-opacity:1" />
        <path
           id="path7421"
           d="M 54.75,237.3125 C 54.57742,242.95268 53.807749,249.48366 54.15625,256.03125 C 54.217041,257.1734 54.282084,258.28879 54.34375,259.40625 L 56.65625,259.90625 C 56.569917,258.7228 56.471991,257.5164 56.40625,256.28125 C 56.112612,250.7644 56.98629,245.13512 57.15625,240.09375 C 56.215308,239.82124 54.956098,238.72941 54.75,237.3125 z "
           style="fill:#a56161;fill-opacity:1;fill-rule:nonzero;stroke:none;stroke-width:7;stroke-linecap:square;stroke-linejoin:round;stroke-miterlimit:4;stroke-dashoffset:0;stroke-opacity:1" />
        <path
           style="fill:#a56161;fill-opacity:1;fill-rule:nonzero;stroke:none;stroke-width:7;stroke-linecap:square;stroke-linejoin:round;stroke-miterlimit:4;stroke-dashoffset:0;stroke-opacity:1"
           id="path7423"
           d="M 57.933328,233.36128 C 56.356464,233.64323 54.847858,232.59229 54.565905,231.01542 C 54.283952,229.43856 55.334894,227.92995 56.911758,227.648 C 58.488622,227.36605 59.997227,228.41699 60.27918,229.99385 C 60.561134,231.57072 59.510192,233.07932 57.933328,233.36128 z " />
      </g>
      <path
         d="M 48.25601,425.66499 C 47.77758,430.82567 23.77121,435.26675 -5.36371,435.58443 C -34.498641,435.90211 -57.72932,431.97608 -57.250888,426.8154 C -56.772457,421.65472 -32.766088,417.21364 -3.63116,416.89596 C 25.50377,416.57828 48.73444,420.50431 48.25601,425.66499 z "
         id="path3807"
         style="opacity:0.27488152;fill:url(#radialGradient9081);fill-opacity:1;stroke:none;stroke-width:1.25;stroke-linecap:round;stroke-linejoin:round;stroke-miterlimit:4;stroke-opacity:0.5944443" />
      <path
         d="M -101.7811,331.13094 L -6.49713,354.54947 L -5.2428,430.6357 L -96.233657,378.5749 L -101.7811,331.13094 z "
         id="path3752"
         style="opacity:0.35071088;fill:url(#linearGradient9078);fill-opacity:1;fill-rule:evenodd;stroke:none;stroke-width:0.25pt;stroke-linecap:butt;stroke-linejoin:miter;stroke-opacity:1" />
      <path
         d="M 2.46399,357.50095 L 68.56057,335.54756 L 64.18013,370.65289 C 58.44683,407.83549 7.67024,377.32592 -0.09891,429.52296 L 2.46399,357.50095 z "
         id="path3780"
         style="opacity:0.2606635;fill:url(#linearGradient9075);fill-opacity:1;fill-rule:evenodd;stroke:none;stroke-width:0.25pt;stroke-linecap:butt;stroke-linejoin:miter;stroke-opacity:1" />
      <rect
         height="74.679169"
         id="rect3797"
         rx="2.5192347"
         ry="1.4394128"
         style="opacity:0.34597156;fill:url(#linearGradient9072);fill-opacity:1;stroke:none;stroke-width:1.25;stroke-linecap:round;stroke-linejoin:round;stroke-miterlimit:4;stroke-opacity:0.5944443"
         transform="matrix(0.9999978,2.0881666e-3,-7.632982e-3,0.9999709,0,0)"
         width="5.5046582"
         x="-2.0832634"
         y="356.61057" />
      <path
         d="M 70.36004,332.66842 L 3.442,354.7054 C 0.13374,355.72332 -3.80698,355.8069 -6.55887,354.55632 L -6.29949,376.88399 C -4.64536,376.62951 -2.67874,376.80041 0.20039,376.08063 C 3.07953,375.36084 66.78036,353.04756 66.78036,353.04756 L 70.36004,332.66842 z "
         id="path3786"
         style="opacity:0.4075829;fill:url(#linearGradient9069);fill-opacity:1;fill-rule:evenodd;stroke:none;stroke-width:0.25pt;stroke-linecap:butt;stroke-linejoin:miter;stroke-opacity:1" />
      <path
         d="M -102.39109,318.88819 L -95.265598,317.51037 L -1.25638,338.69412 L 66.69028,319.50257 L 72.54337,319.90612 L -1.25638,342.25686 L -102.39109,318.88819 z "
         id="path3791"
         style="opacity:0.20379148;fill:#ffffff;fill-opacity:1;fill-rule:evenodd;stroke:none;stroke-width:0.25pt;stroke-linecap:butt;stroke-linejoin:miter;stroke-opacity:1" />
      <g
         id="g101026"
         transform="translate(92.32941,267.3967)">
        <path
           id="path1683"
           d="M -93.125,37.78125 C -96.494725,38.176244 -99.638691,40.167661 -101.3125,43.40625 C -102.66322,46.019709 -102.7847,48.934319 -101.9375,51.53125 C -105.70426,55.010503 -113.35419,61.211893 -119.34375,65.1875 L -106.75,68.03125 C -101.89172,64.233979 -96.625695,60.490569 -93.46875,58.6875 C -89.124407,59.327602 -84.65785,57.239684 -82.53125,53.125 C -80.916239,50.000176 -81.06154,46.452137 -82.53125,43.53125 L -85.875,50.03125 C -86.715278,51.657106 -88.71789,52.309044 -90.34375,51.46875 L -95.0625,49 C -96.688348,48.159704 -97.30904,46.188356 -96.46875,44.5625 L -92.96875,37.78125 C -93.022355,37.786714 -93.071512,37.77498 -93.125,37.78125 z "
           style="fill:url(#linearGradient9054);fill-opacity:1;stroke:#606060;stroke-width:0.82588667;stroke-linecap:round;stroke-linejoin:round;stroke-miterlimit:4;stroke-opacity:1" />
        <path
           d="M -93.538323,38.286583 C -96.969053,38.636303 -99.457023,40.848243 -101.1574,44.138243 C -102.23639,46.225943 -102.47829,48.402873 -102.1289,50.561163 C -101.16459,53.564673 -98.602883,56.162393 -94.928733,58.385813 C -90.292753,59.526963 -85.505293,58.131553 -83.218723,53.707353 C -81.603713,50.582543 -81.028683,47.243673 -82.498393,44.322793 L -85.863743,50.834283 C -86.704033,52.460143 -88.689423,53.092563 -90.315283,52.252263 L -95.627913,49.524743 C -97.253763,48.684453 -97.886173,46.699063 -97.045893,45.073213 L -93.538323,38.286583 z "
           id="path4183"
           sodipodi:nodetypes="ccccccccccc"
           style="fill:url(#linearGradient9056);fill-opacity:1;stroke:none;stroke-width:1.25;stroke-linecap:round;stroke-linejoin:round;stroke-miterlimit:4;stroke-opacity:1" />
      </g>
    </g>
    <text
       xml:space="preserve"
       style="font-size:28px;font-style:normal;font-weight:normal;text-align:center;text-anchor:middle;fill:#ffffff;fill-opacity:1;stroke:none;stroke-width:1px;stroke-linecap:butt;stroke-linejoin:miter;stroke-opacity:1;font-family:Bitstream Vera Sans"
       id="text2386"
       transform="matrix(0.9998025,1.9867257e-2,0.3462808,1.0070784,-189.09507,-4.563938)"><textPath
         xlink:href="#path2390"
         startOffset="50%"
         id="textPath2392"><tspan
   style="font-size:28px;font-weight:bold;fill:#ffffff"
   id="tspan2388">JAVA</tspan></textPath></text>
    <path
       style="fill:none;fill-rule:evenodd;stroke:none;stroke-width:1px;stroke-linecap:butt;stroke-linejoin:miter;stroke-opacity:1"
       d="M 305,547.36218 L 365,565.21933"
       id="path2390" />
    <path
       sodipodi:type="arc"
       style="opacity:1;fill:none;fill-opacity:1;stroke:none;stroke-width:3;stroke-miterlimit:4;stroke-dasharray:none;stroke-dashoffset:0;stroke-opacity:1"
       id="path3360"
       sodipodi:cx="373.75644"
       sodipodi:cy="511.93057"
       sodipodi:rx="172.73608"
       sodipodi:ry="172.73608"
       d="M 546.49252 511.93057 A 172.73608 172.73608 0 1 1  201.02036,511.93057 A 172.73608 172.73608 0 1 1  546.49252 511.93057 z"
       transform="matrix(5.7482737e-3,0.7253088,-0.7253088,5.7482737e-3,742.73072,238.33061)" />
  </g>
</svg>
