<?xml version="1.0" encoding="UTF-8" standalone="no"?>
<!-- Created with Inkscape (http://www.inkscape.org/) -->
<svg
   xmlns:dc="http://purl.org/dc/elements/1.1/"
   xmlns:cc="http://creativecommons.org/ns#"
   xmlns:rdf="http://www.w3.org/1999/02/22-rdf-syntax-ns#"
   xmlns:svg="http://www.w3.org/2000/svg"
   xmlns="http://www.w3.org/2000/svg"
   xmlns:xlink="http://www.w3.org/1999/xlink"
   xmlns:sodipodi="http://sodipodi.sourceforge.net/DTD/sodipodi-0.dtd"
   xmlns:inkscape="http://www.inkscape.org/namespaces/inkscape"
   width="800"
   height="249.46001"
   id="svg2"
   sodipodi:version="0.32"
   inkscape:version="0.46"
   sodipodi:docbase="/Users/reeuwijk/informatie"
   sodipodi:docname="ibis-logo-promised.svg"
   inkscape:export-filename="/Users/reeuwijk/informatie/ibis-logo.png"
   inkscape:export-xdpi="46.900002"
   inkscape:export-ydpi="46.900002"
   inkscape:output_extension="org.inkscape.output.svg.inkscape"
   version="1.0">
  <defs
     id="defs4">
    <inkscape:perspective
       sodipodi:type="inkscape:persp3d"
       inkscape:vp_x="0 : 526.18109 : 1"
       inkscape:vp_y="0 : 1000 : 0"
       inkscape:vp_z="744.09448 : 526.18109 : 1"
       inkscape:persp3d-origin="372.04724 : 350.78739 : 1"
       id="perspective72" />
    <linearGradient
       id="linearGradient2143">
      <stop
         id="stop2145"
         offset="0.0000000"
         style="stop-color:#ffffff;stop-opacity:1.0000000;" />
      <stop
         id="stop2147"
         offset="1.0000000"
         style="stop-color:#313131;stop-opacity:1.0000000;" />
    </linearGradient>
    <linearGradient
       id="linearGradient2267">
      <stop
         style="stop-color:#6689cc;stop-opacity:1;"
         offset="0"
         id="stop2269" />
      <stop
         style="stop-color:#d1dbf0;stop-opacity:1;"
         offset="1"
         id="stop2271" />
    </linearGradient>
    <linearGradient
       id="linearGradient2149">
      <stop
         style="stop-color:#fffefa;stop-opacity:1.0000000;"
         offset="0.0000000"
         id="stop2151" />
      <stop
         style="stop-color:#edbe00;stop-opacity:1.0000000;"
         offset="1.0000000"
         id="stop2153" />
    </linearGradient>
    <linearGradient
       id="linearGradient2252">
      <stop
         id="stop2254"
         offset="0.0000000"
         style="stop-color:#cfcfcf;stop-opacity:1.0000000;" />
      <stop
         id="stop2256"
         offset="1.0000000"
         style="stop-color:none" />
    </linearGradient>
    <linearGradient
       id="linearGradient2160">
      <stop
         style="stop-color:#ffffff;stop-opacity:1.0000000;"
         offset="0.0000000"
         id="stop2162" />
      <stop
         style="stop-color:#000000;stop-opacity:1.0000000;"
         offset="1.0000000"
         id="stop2164" />
    </linearGradient>
    <linearGradient
       inkscape:collect="always"
       xlink:href="#linearGradient2267"
       id="linearGradient2273"
       x1="492.2554"
       y1="624.21143"
       x2="708.63928"
       y2="624.21143"
       gradientUnits="userSpaceOnUse"
       gradientTransform="matrix(0.8442274,0,0,0.9106437,73.832022,27.250686)" />
    <linearGradient
       inkscape:collect="always"
       xlink:href="#linearGradient2143"
       id="linearGradient2515"
       gradientUnits="userSpaceOnUse"
       x1="610.78302"
       y1="627.73987"
       x2="601.6972"
       y2="636.40118"
       gradientTransform="matrix(0.8442274,0,0,0.8442274,73.832022,76.388226)" />
    <linearGradient
       inkscape:collect="always"
       xlink:href="#linearGradient2252"
       id="linearGradient2517"
       gradientUnits="userSpaceOnUse"
       gradientTransform="matrix(-0.8442274,0,0,0.8442274,1081.0629,72.873806)"
       x1="572.59827"
       y1="548.57898"
       x2="575.29626"
       y2="528.11658" />
    <linearGradient
       inkscape:collect="always"
       xlink:href="#linearGradient2252"
       id="linearGradient2519"
       gradientUnits="userSpaceOnUse"
       gradientTransform="matrix(-0.8442274,0,0,0.8442274,1081.0629,72.873806)"
       x1="604.37231"
       y1="591.9754"
       x2="627.31445"
       y2="584.63965" />
    <linearGradient
       inkscape:collect="always"
       xlink:href="#linearGradient2252"
       id="linearGradient2521"
       gradientUnits="userSpaceOnUse"
       gradientTransform="matrix(-0.8442274,0,0,0.8442274,1081.0629,72.873806)"
       x1="594.18475"
       y1="562.36078"
       x2="607.02051"
       y2="552.29382" />
    <linearGradient
       inkscape:collect="always"
       xlink:href="#linearGradient2252"
       id="linearGradient2523"
       gradientUnits="userSpaceOnUse"
       gradientTransform="matrix(-0.8442274,0,0,0.8442274,1081.0629,72.873806)"
       x1="590.7981"
       y1="558.41052"
       x2="601.8125"
       y2="546.65552" />
    <linearGradient
       inkscape:collect="always"
       xlink:href="#linearGradient2252"
       id="linearGradient2525"
       gradientUnits="userSpaceOnUse"
       gradientTransform="matrix(-0.8442274,0,0,0.8442274,1081.1355,72.581696)"
       x1="600.1413"
       y1="571.77429"
       x2="616.7265"
       y2="561.50922" />
    <linearGradient
       inkscape:collect="always"
       xlink:href="#linearGradient2252"
       id="linearGradient2527"
       gradientUnits="userSpaceOnUse"
       gradientTransform="matrix(-0.8442274,0,0,0.8442274,1081.0629,72.873806)"
       x1="585.94318"
       y1="554.65155"
       x2="596.61627"
       y2="540.57452" />
    <linearGradient
       inkscape:collect="always"
       xlink:href="#linearGradient2252"
       id="linearGradient2529"
       gradientUnits="userSpaceOnUse"
       gradientTransform="matrix(-0.8442274,0,0,0.8442274,1081.0629,72.873806)"
       x1="581.73572"
       y1="552.12128"
       x2="588.81451"
       y2="539.49548" />
    <linearGradient
       inkscape:collect="always"
       xlink:href="#linearGradient2252"
       id="linearGradient2531"
       gradientUnits="userSpaceOnUse"
       gradientTransform="matrix(-0.8442274,0,0,0.8442274,1081.0629,72.873806)"
       x1="565.70642"
       y1="547.44733"
       x2="568.24182"
       y2="526.5495" />
    <linearGradient
       inkscape:collect="always"
       xlink:href="#linearGradient2252"
       id="linearGradient2533"
       gradientUnits="userSpaceOnUse"
       gradientTransform="matrix(-0.8442274,0,0,0.8442274,1081.0629,72.873806)"
       x1="576.07593"
       y1="549.71588"
       x2="581.91107"
       y2="533.60724" />
    <linearGradient
       inkscape:collect="always"
       xlink:href="#linearGradient2252"
       id="linearGradient2535"
       gradientUnits="userSpaceOnUse"
       gradientTransform="matrix(-0.8442274,0,0,0.8442274,1077.1955,76.915573)"
       x1="592.95306"
       y1="562.48102"
       x2="607.02051"
       y2="552.29382" />
    <linearGradient
       inkscape:collect="always"
       xlink:href="#linearGradient2160"
       id="linearGradient2537"
       gradientUnits="userSpaceOnUse"
       gradientTransform="matrix(-0.8442274,0,0,0.8442274,1079.0157,71.411355)"
       x1="672.54047"
       y1="562.66644"
       x2="679.08618"
       y2="561.83868" />
    <linearGradient
       inkscape:collect="always"
       xlink:href="#linearGradient2160"
       id="linearGradient2539"
       gradientUnits="userSpaceOnUse"
       gradientTransform="matrix(-0.8442274,0,0,0.8442274,1081.0629,72.873806)"
       x1="678.64893"
       y1="548.61322"
       x2="684.39679"
       y2="546.60376" />
    <linearGradient
       inkscape:collect="always"
       xlink:href="#linearGradient2160"
       id="linearGradient2541"
       gradientUnits="userSpaceOnUse"
       gradientTransform="matrix(-0.8442274,0,0,0.8442274,1081.0629,72.873806)"
       x1="676.59802"
       y1="543.67896"
       x2="684.51239"
       y2="539.17499" />
    <linearGradient
       inkscape:collect="always"
       xlink:href="#linearGradient2160"
       id="linearGradient2543"
       gradientUnits="userSpaceOnUse"
       gradientTransform="matrix(-0.8442274,0,0,0.8442274,1081.0629,72.873806)"
       x1="674.44995"
       y1="539.12225"
       x2="682.88818"
       y2="532.88599" />
    <linearGradient
       inkscape:collect="always"
       xlink:href="#linearGradient2160"
       id="linearGradient2545"
       gradientUnits="userSpaceOnUse"
       gradientTransform="matrix(-0.8442274,0,0,0.8442274,1081.1161,72.793919)"
       x1="672.73938"
       y1="536.32233"
       x2="681.13623"
       y2="527.17584" />
    <linearGradient
       inkscape:collect="always"
       xlink:href="#linearGradient2160"
       id="linearGradient2547"
       gradientUnits="userSpaceOnUse"
       gradientTransform="matrix(-0.8442274,0,0,0.8442274,1081.2225,72.847177)"
       x1="668.42975"
       y1="532.6543"
       x2="675.51105"
       y2="523.78491" />
    <linearGradient
       inkscape:collect="always"
       xlink:href="#linearGradient2160"
       id="linearGradient2549"
       gradientUnits="userSpaceOnUse"
       gradientTransform="matrix(-0.8442274,0,0,0.8442274,1081.0629,72.873806)"
       x1="662.57251"
       y1="530.73901"
       x2="667.02698"
       y2="521.1767" />
    <linearGradient
       inkscape:collect="always"
       xlink:href="#linearGradient2160"
       id="linearGradient2551"
       gradientUnits="userSpaceOnUse"
       gradientTransform="matrix(-0.8442274,0,0,0.8442274,1081.0629,72.873806)"
       x1="656.67694"
       y1="529.62207"
       x2="659.44086"
       y2="518.81256" />
    <radialGradient
       inkscape:collect="always"
       xlink:href="#linearGradient2149"
       id="radialGradient2553"
       gradientUnits="userSpaceOnUse"
       cx="545.65222"
       cy="636.2204"
       fx="545.65222"
       fy="636.2204"
       r="0.98062319" />
    <linearGradient
       inkscape:collect="always"
       xlink:href="#linearGradient2160"
       id="linearGradient2555"
       gradientUnits="userSpaceOnUse"
       gradientTransform="matrix(-0.8442274,0,0,0.8442274,1081.0629,72.873806)"
       x1="627.83557"
       y1="634.27155"
       x2="680.10315"
       y2="643.85101" />
    <linearGradient
       inkscape:collect="always"
       xlink:href="#linearGradient2160"
       id="linearGradient2557"
       gradientUnits="userSpaceOnUse"
       gradientTransform="matrix(-0.8442274,0,0,0.8442274,1081.0629,72.873806)"
       x1="630.37231"
       y1="571.93939"
       x2="627.56451"
       y2="570.36731" />
  </defs>
  <sodipodi:namedview
     id="base"
     pagecolor="#ffffff"
     bordercolor="#666666"
     borderopacity="1.0"
     inkscape:pageopacity="0.0"
     inkscape:pageshadow="2"
     inkscape:zoom="0.59950007"
     inkscape:cx="305.12611"
     inkscape:cy="-1.4009254"
     inkscape:document-units="mm"
     inkscape:current-layer="layer3"
     inkscape:window-width="1531"
     inkscape:window-height="1128"
     inkscape:window-x="0"
     inkscape:window-y="25"
     showgrid="false" />
  <metadata
     id="metadata7">
    <rdf:RDF>
      <cc:Work
         rdf:about="">
        <dc:format>image/svg+xml</dc:format>
        <dc:type
           rdf:resource="http://purl.org/dc/dcmitype/StillImage" />
        <dc:title>Ibis logo</dc:title>
        <dc:creator>
          <cc:Agent>
            <dc:title>Kees van Reeuwijk</dc:title>
          </cc:Agent>
        </dc:creator>
        <dc:contributor>
          <cc:Agent>
            <dc:title>Jason Maassen</dc:title>
          </cc:Agent>
        </dc:contributor>
        <dc:description>Ibis logo</dc:description>
        <dc:publisher>
          <cc:Agent>
            <dc:title>Vrije Universiteit Amsterdam</dc:title>
          </cc:Agent>
        </dc:publisher>
      </cc:Work>
    </rdf:RDF>
  </metadata>
  <g
     inkscape:groupmode="layer"
     id="layer3"
     inkscape:label="Contrast layer"
     style="display:inline"
     transform="translate(-473.97324,-490.38309)">
    <text
       xml:space="preserve"
       style="font-size:55px;font-style:normal;font-variant:normal;font-weight:bold;font-stretch:normal;text-align:center;line-height:100%;writing-mode:lr-tb;text-anchor:middle;fill:#365ca4;fill-opacity:1;stroke:none;stroke-width:0.53149605;stroke-linecap:butt;stroke-linejoin:miter;stroke-miterlimit:4;stroke-dasharray:none;stroke-opacity:1;display:inline;font-family:Bitstream Vera Sans"
       x="822.56763"
       y="688.28625"
       id="text2452"
       sodipodi:linespacing="100%"
       inkscape:label="Naam"><tspan
         sodipodi:role="line"
         id="tspan2454"
         x="822.56763"
         y="688.28625"
         style="font-size:55px;font-style:normal;font-variant:normal;font-weight:bold;font-stretch:normal;text-align:center;line-height:100%;letter-spacing:-4.12979984;writing-mode:lr-tb;text-anchor:middle;fill:#365ca4;fill-opacity:1;stroke:none;stroke-width:0.53149605;stroke-miterlimit:4;stroke-dasharray:none;stroke-opacity:1;font-family:Bitstream Vera Sans">ibis: Grids as Promised</tspan></text>
  </g>
  <g
     inkscape:label="Vogel"
     inkscape:groupmode="layer"
     id="layer1"
     style="display:inline"
     transform="translate(-473.97324,-490.38309)">
    <path
       style="fill:url(#linearGradient2557);fill-opacity:1;fill-rule:evenodd;stroke:#000000;stroke-width:1px;stroke-linecap:butt;stroke-linejoin:miter;stroke-opacity:1"
       d="M 557.75917,563.85488 C 558.24754,560.38028 556.09213,558.55329 552.69994,554.4915 C 549.30775,550.42972 543.07841,542.0248 539.07887,538.14682 C 535.05222,534.24255 532.60522,531.51354 530.69414,527.47737 C 528.81475,523.50814 525.04145,526.65447 521.44835,528.58626 C 517.85525,530.51804 511.20218,534.69376 510.70219,539.3947 C 510.20356,544.08295 510.758,545.35641 511.04055,551.66034 C 511.3277,558.06705 511.63055,570.32779 514.11776,577.67528 C 516.60496,585.02277 520.41592,590.87062 523.22012,595.17877 C 526.02431,599.48692 526.75205,601.81914 529.2945,604.45721 C 531.83694,607.09529 534.3266,605.21241 537.29481,601.57327 C 540.26301,597.93413 543.62102,589.16131 546.16687,584.23918 C 548.71272,579.31706 557.27081,567.32947 557.75917,563.85488 z"
       id="Achtervleugel"
       sodipodi:nodetypes="czzzzzzzzzzzz"
       inkscape:label="Achtervleugel" />
    <path
       style="fill:url(#linearGradient2555);fill-opacity:1;fill-rule:evenodd;stroke:#000000;stroke-width:1px;stroke-linecap:butt;stroke-linejoin:miter;stroke-opacity:1"
       d="M 583.72081,589.83782 C 586.40592,591.44944 586.27019,598.23585 589.2118,601.96499 C 592.19407,605.7457 595.73585,610.30814 601.21014,610.566 C 606.62557,610.82109 613.21881,608.4125 617.76408,608.14834 C 622.30935,607.88416 625.81657,616.47341 620.84507,616.72027 C 615.87356,616.96714 605.65947,618.37211 599.85476,618.31599 C 594.05005,618.25988 585.15434,614.52088 582.10615,614.59356 C 579.59411,614.65345 574.66315,619.9869 569.31796,620.30373 C 563.96653,620.62093 558.43926,620.04027 552.43012,619.60293 C 546.42099,619.1656 537.35642,618.72028 531.16956,618.71299 C 525.05279,618.70577 515.04753,619.22957 511.88596,619.54536 C 508.91397,619.84222 498.21382,620.58791 494.07524,619.33343 C 489.93666,618.07895 496.69763,614.84792 499.99139,613.92133 C 503.32243,612.98426 509.784,613.0106 514.35817,612.07358 C 518.90416,611.14232 523.10145,609.14388 526.71193,606.60494 C 530.32242,604.06601 531.54457,600.6321 537.3068,599.08653 C 543.06903,597.54096 552.24333,594.73481 557.70626,592.73472 C 563.16919,590.73462 580.85773,588.11938 583.72081,589.83782 z"
       id="Lijf"
       sodipodi:nodetypes="czzzzzzzzzzzzzzzzz"
       inkscape:label="Lijf" />
    <path
       style="fill:#000000;fill-opacity:1;fill-rule:evenodd;stroke:#000000;stroke-width:1px;stroke-linecap:butt;stroke-linejoin:miter;stroke-opacity:1"
       d="M 649.74599,618.08461 C 645.76601,615.49304 641.43397,614.03072 637.64097,612.91506 C 633.84797,611.7994 631.6849,611.74457 629.2012,610.26761 C 626.72803,608.79691 624.21003,606.37109 621.65838,606.40389 C 619.07042,606.43715 608.28886,608.19937 607.15146,609.92412 C 606.03723,611.61375 610.96469,611.54538 610.86118,613.64377 C 610.75706,615.75457 602.88664,618.2647 607.67217,618.0507 C 612.27057,617.84507 626.5089,616.48091 631.92125,616.543 C 637.19169,616.60508 640.84994,616.83544 644.93291,618.10238 C 649.07116,619.38646 657.81269,626.37656 659.98559,628.21701 C 662.15603,630.05537 662.97393,629.05197 661.0023,626.90289 C 659.1074,624.83745 653.72596,620.67617 649.74599,618.08461 z"
       id="Kop"
       sodipodi:nodetypes="czzzzzzzzzzz"
       inkscape:label="Kop" />
    <path
       sodipodi:type="arc"
       style="fill:url(#radialGradient2553);fill-opacity:1;stroke:#000000;stroke-width:4.96062993999999957;stroke-linecap:round;stroke-linejoin:round;stroke-miterlimit:4;stroke-dasharray:none;stroke-opacity:1;display:inline"
       id="path3575"
       sodipodi:cx="545.3703"
       sodipodi:cy="636.64331"
       sodipodi:rx="1.1215949"
       sodipodi:ry="1.1215949"
       d="M 546.4919,636.64331 A 1.1215949,1.1215949 0 1 1 544.24871,636.64331 A 1.1215949,1.1215949 0 1 1 546.4919,636.64331 z"
       transform="matrix(-0.9976413,0,0,0.9976413,1164.7529,-24.995216)"
       inkscape:label="Oog" />
    <path
       style="fill:url(#linearGradient2551);fill-opacity:1;fill-rule:evenodd;stroke:#000000;stroke-width:1px;stroke-linecap:butt;stroke-linejoin:miter;stroke-opacity:1"
       d="M 530.88168,528.61297 C 530.44308,526.9801 530.45211,526.58021 529.63532,523.42281 C 528.7941,520.17104 527.81329,516.61355 527.14106,513.92381 C 526.47043,511.24044 525.89308,509.709 523.15943,507.10096 C 520.31731,504.38944 522.11574,512.06358 522.75912,514.53649 C 523.42764,517.10606 523.97156,518.70927 524.84395,521.46778 C 525.71116,524.20992 527.31056,528.60788 527.34254,528.74703"
       id="path2735"
       sodipodi:nodetypes="czzzzzz" />
    <path
       style="fill:url(#linearGradient2549);fill-opacity:1;fill-rule:evenodd;stroke:#000000;stroke-width:1px;stroke-linecap:butt;stroke-linejoin:miter;stroke-opacity:1"
       d="M 526.89504,526.89377 C 526.07796,524.3404 524.99329,522.16128 523.86538,519.49161 C 522.71648,516.77222 521.27582,513.86477 520.06227,511.46839 C 518.8541,509.08265 516.7703,506.90029 514.28862,505.83714 C 511.82761,504.78284 514.9119,511.69312 515.86117,513.78372 C 516.83055,515.91857 518.06406,517.95951 519.09173,520.05115 C 520.17143,522.2487 521.9789,526.0237 523.17024,528.04865"
       id="path2737"
       sodipodi:nodetypes="czzzzzz" />
    <path
       style="fill:url(#linearGradient2547);fill-opacity:1;fill-rule:evenodd;stroke:#000000;stroke-width:1px;stroke-linecap:butt;stroke-linejoin:miter;stroke-opacity:1"
       d="M 523.42528,528.45831 C 521.18469,524.91865 519.91252,523.40379 517.81465,520.4723 C 515.90039,517.79738 514.26567,516.01765 512.67237,513.74071 C 511.09161,511.48168 510.15342,509.99423 506.75261,508.57655 C 503.15126,507.07526 507.44772,513.94361 508.65849,515.38984 C 510.1757,517.20209 511.6428,520.04381 513.20233,522.2907 C 514.76185,524.53759 518.71545,530.49806 519.22134,531.0926"
       id="path2739"
       sodipodi:nodetypes="czzzzzz" />
    <path
       style="fill:url(#linearGradient2545);fill-opacity:1;fill-rule:evenodd;stroke:#000000;stroke-width:1px;stroke-linecap:butt;stroke-linejoin:miter;stroke-opacity:1"
       d="M 520.64613,529.99785 C 518.09929,527.64675 516.36718,525.79396 514.39843,523.57278 C 512.42968,521.3516 509.59449,518.24455 507.95954,516.78725 C 506.35744,515.35923 505.21444,513.89619 502.41235,512.87717 C 499.66226,511.87704 504.29957,517.76007 505.52774,519.43488 C 506.75592,521.10969 507.90052,521.80151 510.04271,524.31556 C 512.15134,526.79023 517.61484,532.5256 517.76249,532.65781"
       id="path2741"
       sodipodi:nodetypes="czzzzzz" />
    <path
       style="fill:url(#linearGradient2543);fill-opacity:1;fill-rule:evenodd;stroke:#000000;stroke-width:1px;stroke-linecap:butt;stroke-linejoin:miter;stroke-opacity:1"
       d="M 518.4594,531.54248 C 516.27983,529.73423 514.69054,528.32553 512.85877,526.62058 C 511.09062,524.97484 510.13856,524.3355 508.37628,523.04959 C 506.6013,521.75443 504.8349,520.38534 501.50312,519.50785 C 498.28062,518.65915 502.77202,523.14863 504.70721,525.13599 C 506.5839,527.06486 508.84058,529.69208 510.60879,531.43818 C 512.37701,533.18428 515.67048,536.28835 515.84651,535.53183"
       id="path2743"
       sodipodi:nodetypes="czzzzzz" />
    <path
       style="fill:url(#linearGradient2541);fill-opacity:1;fill-rule:evenodd;stroke:#000000;stroke-width:1px;stroke-linecap:butt;stroke-linejoin:miter;stroke-opacity:1"
       d="M 516.43834,534.21393 C 515.06353,533.21553 514.77647,533.11511 512.12553,531.37545 C 509.33393,529.54349 509.58465,529.45298 507.82157,528.13414 C 506.05848,526.81529 506.56494,526.17195 499.59374,523.7918 C 492.87254,521.497 501.59469,529.32723 503.80914,530.88245 C 506.02359,532.43767 508.46251,534.32832 510.55966,535.68756 C 512.6568,537.0468 513.89382,538.57213 515.04356,539.65653"
       id="path2745"
       sodipodi:nodetypes="czzzzzz" />
    <path
       style="fill:url(#linearGradient2539);fill-opacity:1;fill-rule:evenodd;stroke:#000000;stroke-width:1px;stroke-linecap:butt;stroke-linejoin:miter;stroke-opacity:1"
       d="M 515.61365,537.31084 C 513.89117,536.32764 510.496,534.99613 508.84944,534.40937 C 507.20288,533.8226 507.08685,532.80235 502.30993,532.54019 C 497.53656,532.27821 504.39143,536.85387 505.83324,537.89503 C 507.27504,538.9362 513.0885,542.2623 514.31521,542.80282"
       id="path2747"
       sodipodi:nodetypes="czzzz" />
    <path
       style="fill:url(#linearGradient2537);fill-opacity:1;fill-rule:evenodd;stroke:#000000;stroke-width:1px;stroke-linecap:butt;stroke-linejoin:miter;stroke-opacity:1"
       d="M 514.59737,545.91124 C 513.1071,545.48984 512.26774,544.9147 510.29987,544.19126 C 508.332,543.46782 507.0666,542.50834 502.46499,543.19264 C 498.08178,543.84446 509.06336,549.23863 510.58854,550.066 C 512.11372,550.89338 514.32843,551.6961 514.98677,552.06352 C 515.64511,552.43094 514.90082,552.03875 514.86346,552.03178"
       id="path2749"
       sodipodi:nodetypes="czzzzz" />
    <path
       style="fill:url(#linearGradient2535);fill-opacity:1;fill-rule:evenodd;stroke:#000000;stroke-width:1px;stroke-linecap:butt;stroke-linejoin:miter;stroke-opacity:1;display:inline"
       d="M 580.94926,551.58683 C 579.10623,549.84318 572.37101,543.87424 569.92606,542.78671 C 567.46666,541.69275 564.75044,540.32947 562.93276,540.39405 C 561.12229,540.45837 561.5016,542.23541 564.38519,544.89186 C 567.26877,547.5483 575.37059,553.77858 575.7275,554.1997"
       id="path2702"
       sodipodi:nodetypes="czzzz" />
    <path
       style="fill:url(#linearGradient2533);fill-opacity:1;fill-rule:evenodd;stroke:#000000;stroke-width:1px;stroke-linecap:butt;stroke-linejoin:miter;stroke-opacity:1;display:inline"
       d="M 599.81483,548.05596 C 598.36477,541.10904 597.27538,536.35372 595.47787,530.19817 C 593.69028,524.07662 589.59851,518.31054 586.40045,516.39803 C 582.93745,514.32709 588.40276,526.57303 590.04215,531.69733 C 591.68155,536.82163 594.60747,548.14143 595.27739,549.33339 C 595.94732,550.52535 595.37252,549.29422 595.40423,549.28116"
       id="path1326"
       sodipodi:nodetypes="czzzzz" />
    <path
       style="fill:url(#linearGradient2531);fill-opacity:1;fill-rule:evenodd;stroke:#000000;stroke-width:1px;stroke-linecap:butt;stroke-linejoin:miter;stroke-opacity:1;display:inline"
       d="M 604.71554,551.36396 C 606.02642,537.47161 606.33671,526.13394 605.9587,523.96907 C 605.55996,521.68541 603.17366,516.44779 600.23917,513.50979 C 597.41383,510.68106 599.70413,520.73753 599.98736,524.48215 C 600.27143,528.23795 600.7551,543.87472 600.87073,547.55115 C 600.98251,551.1052 600.83946,547.60781 600.82052,547.64213 C 600.80159,547.67645 600.80137,547.67685 600.79499,547.68842"
       id="path1322"
       sodipodi:nodetypes="czzzzzz" />
    <path
       style="fill:url(#linearGradient2529);fill-opacity:1;fill-rule:evenodd;stroke:#000000;stroke-width:1px;stroke-linecap:butt;stroke-linejoin:miter;stroke-opacity:1;display:inline"
       d="M 597.11947,547.81095 C 594.89491,541.07883 591.56298,536.46491 589.37619,531.82827 C 587.18942,527.19164 578.91222,516.57901 579.21521,520.89264 C 579.51747,525.19606 581.23841,528.82152 583.92258,532.88164 C 586.60675,536.94176 590.49626,546.26894 591.60618,551.97654"
       id="path1328"
       sodipodi:nodetypes="czzzc" />
    <path
       style="fill:url(#linearGradient2527);fill-opacity:1;fill-rule:evenodd;stroke:#000000;stroke-width:1px;stroke-linecap:butt;stroke-linejoin:miter;stroke-opacity:1;display:inline"
       d="M 592.09626,548.42357 C 591.36842,544.60101 588.83606,541.75383 586.74217,538.10506 C 584.64828,534.45628 575.26648,522.78039 573.78024,524.47954 C 572.10155,526.3987 579.91544,539.27694 581.80511,541.90215 C 583.69479,544.52736 590.99758,553.74314 591.11612,554.05933"
       id="path1330"
       sodipodi:nodetypes="czzzz" />
    <path
       style="fill:url(#linearGradient2525);fill-opacity:1;fill-rule:evenodd;stroke:#000000;stroke-width:1px;stroke-linecap:butt;stroke-linejoin:miter;stroke-opacity:1;display:inline"
       d="M 577.05928,553.76043 C 574.09716,551.78095 571.12705,550.30217 568.05573,548.21302 C 564.67503,545.9134 561.59599,544.40751 558.90858,545.57666 C 556.26294,546.72764 561.88443,550.36356 565.02432,552.56993 C 568.47681,554.99597 568.51579,554.21723 573.62878,557.92601"
       id="path1338"
       sodipodi:nodetypes="czzzz" />
    <path
       style="fill:url(#linearGradient2523);fill-opacity:1;fill-rule:evenodd;stroke:#000000;stroke-width:1px;stroke-linecap:butt;stroke-linejoin:miter;stroke-opacity:1;display:inline"
       d="M 590.87109,550.99638 C 586.88468,546.26872 583.09461,541.17376 580.32131,538.01994 C 577.54605,534.8639 570.4442,528.88635 568.96879,531.02693 C 567.5317,533.11191 575.5804,540.91361 578.2764,543.56039 C 580.96356,546.1985 584.82632,552.99773 584.86774,553.32423"
       id="path1332"
       sodipodi:nodetypes="czzzz" />
    <path
       style="fill:url(#linearGradient2521);fill-opacity:1;fill-rule:evenodd;stroke:#000000;stroke-width:1px;stroke-linecap:butt;stroke-linejoin:miter;stroke-opacity:1;display:inline"
       d="M 585.24111,548.55041 C 583.39808,546.80676 574.59947,539.36181 571.93474,538.05449 C 569.35822,536.79046 568.92131,536.23549 566.54247,535.86979 C 564.18256,535.507 566.00599,538.94794 568.88957,541.60439 C 571.77316,544.26083 582.183,552.78059 582.53991,553.20172"
       id="path1336"
       sodipodi:nodetypes="czzzz" />
    <path
       style="fill:url(#linearGradient2519);fill-opacity:1;fill-rule:evenodd;stroke:#000000;stroke-width:1px;stroke-linecap:butt;stroke-linejoin:miter;stroke-opacity:1"
       d="M 583.31776,592.16345 C 587.62114,589.18805 587.77897,584.67286 590.53967,579.26065 C 593.28465,573.87924 599.70039,567.69735 601.92757,562.88556 C 604.16785,558.04548 604.00397,556.09471 604.63646,551.02942 C 605.26716,545.97835 604.47618,542.69177 599.56611,545.56234 C 594.65605,548.43292 588.27263,547.88224 581.78094,549.04573 C 575.28925,550.20922 565.54668,550.80142 560.47553,553.46053 C 555.40437,556.11965 551.3456,562.92926 549.37947,567.04113 C 547.41334,571.153 547.68627,571.01308 545.16892,576.31604 C 542.65157,581.61899 539.09931,589.43526 537.35625,594.34708 C 535.61319,599.25892 531.94465,601.29204 533.64825,605.08387 C 535.35185,608.8757 539.98739,605.58255 545.20566,604.49474 C 550.42394,603.40693 559.24604,600.32209 565.74995,598.78243 C 572.25385,597.24278 579.01439,595.13884 583.31776,592.16345 z"
       id="Voorvleugel"
       sodipodi:nodetypes="czzzzzzzzzzzzz"
       inkscape:label="Voorvleugel" />
    <path
       style="fill:url(#linearGradient2517);fill-opacity:1;fill-rule:evenodd;stroke:#000000;stroke-width:1px;stroke-linecap:butt;stroke-linejoin:miter;stroke-opacity:1;display:inline"
       d="M 602.38772,545.11557 C 601.94197,539.13693 600.7945,529.60354 599.47117,525.23091 C 598.17228,520.93899 595.97659,515.22283 593.58758,514.00395 C 590.97961,512.67335 593.86341,521.56725 594.96701,526.08095 C 596.0706,530.59465 598.04468,541.31724 599.07974,546.46326"
       id="path1324"
       sodipodi:nodetypes="czzzz" />
    <path
       style="fill:url(#linearGradient2515);fill-opacity:1;fill-rule:evenodd;stroke:#000000;stroke-width:1px;stroke-linecap:butt;stroke-linejoin:miter;stroke-opacity:1"
       d="M 579.02625,615.92449 C 579.84097,615.41456 580.79563,614.88619 581.74117,614.63134 C 582.55129,614.23443 582.87097,613.83969 583.96708,613.0945 C 585.06318,612.34932 586.92072,610.07442 588.14761,608.84127 C 588.9993,607.92075 590.31296,606.07652 590.80288,605.23957 C 591.29281,604.40264 590.94858,604.1747 590.21923,604.89876 C 589.48988,605.62283 588.04506,607.6066 586.93539,608.45986 C 585.82572,609.31311 580.19922,613.29158 579.60498,613.98719 C 579.01073,614.68281 578.93387,614.82244 578.8124,616.05058"
       id="Accent"
       sodipodi:nodetypes="cczczzzzc"
       inkscape:label="Accent" />
  </g>
</svg>
